<?xml version="1.0" encoding="UTF-8"?>
<!DOCTYPE svg PUBLIC "-//W3C//DTD SVG 1.1//EN" "http://www.w3.org/Graphics/SVG/1.1/DTD/svg11.dtd">
<svg xmlns="http://www.w3.org/2000/svg" version="1.1" width="733px" height="340px" style="shape-rendering:geometricPrecision; text-rendering:geometricPrecision; image-rendering:optimizeQuality; fill-rule:evenodd; clip-rule:evenodd" xmlns:xlink="http://www.w3.org/1999/xlink">
<g><path style="opacity:0.005" fill="#fefffe" d="M 170.5,99.5 C 170.167,99.5 169.833,99.5 169.5,99.5C 168.167,98.1667 166.833,98.1667 165.5,99.5C 161.417,98.6687 157.417,98.6687 153.5,99.5C 153.389,98.8826 153.056,98.3826 152.5,98C 155.5,97.8333 158.5,97.6667 161.5,97.5C 164.913,97.517 167.913,98.1836 170.5,99.5 Z"/></g>
<g><path style="opacity:0.997" fill="#fff" d="M 165.5,99.5 C 166.833,99.5 168.167,99.5 169.5,99.5C 169.833,99.5 170.167,99.5 170.5,99.5C 178.125,100.99 185.458,103.323 192.5,106.5C 193.29,107.401 194.29,108.068 195.5,108.5C 198.326,108.998 200.66,110.331 202.5,112.5C 203.167,113.833 204.167,114.833 205.5,115.5C 209.78,118.776 213.78,122.443 217.5,126.5C 217.622,129.292 218.956,131.292 221.5,132.5C 227.223,140.817 230.723,150.15 232,160.5C 234.133,175.633 231.967,189.966 225.5,203.5C 224.094,203.973 223.427,204.973 223.5,206.5C 206.78,234.071 182.113,246.237 149.5,243C 141.214,241.354 133.214,238.854 125.5,235.5C 122.243,233.194 118.577,230.694 114.5,228C 112.959,226.629 111.625,225.129 110.5,223.5C 109.5,220.5 107.5,218.5 104.5,217.5C 102.252,214.018 99.7524,210.684 97,207.5C 95.5831,202.924 93.5831,198.591 91,194.5C 90.433,191.832 89.933,189.166 89.5,186.5C 89.5908,177.12 89.5908,167.787 89.5,158.5C 89.3011,155.059 89.8011,151.726 91,148.5C 97.5297,131.038 108.53,117.371 124,107.5C 124.333,107.833 124.667,108.167 125,108.5C 133.8,103.443 143.3,100.443 153.5,99.5C 157.417,98.6687 161.417,98.6687 165.5,99.5 Z M 151.5,144.5 C 154.385,144.194 157.052,144.527 159.5,145.5C 156.763,145.401 154.096,145.735 151.5,146.5C 151.5,146.167 151.5,145.833 151.5,145.5C 151.5,145.167 151.5,144.833 151.5,144.5 Z M 147.5,146.5 C 148.492,146.328 149.158,146.662 149.5,147.5C 148.833,147.833 148.167,148.167 147.5,148.5C 147.5,148.167 147.5,147.833 147.5,147.5C 147.5,147.167 147.5,146.833 147.5,146.5 Z M 178.5,150.5 C 180.587,151.585 181.92,153.251 182.5,155.5C 181.167,154.5 179.833,153.5 178.5,152.5C 178.5,151.833 178.5,151.167 178.5,150.5 Z M 139.5,152.5 C 140.167,152.5 140.5,152.833 140.5,153.5C 138.561,155.989 138.228,155.656 139.5,152.5 Z M 163.5,159.5 C 170.804,164.418 172.47,170.752 168.5,178.5C 167.599,179.29 166.932,180.29 166.5,181.5C 154.706,184.852 148.873,180.518 149,168.5C 150.305,165.039 152.471,162.372 155.5,160.5C 158.096,159.735 160.763,159.401 163.5,159.5 Z M 134.5,161.5 C 135.097,161.735 135.43,162.235 135.5,163C 135.022,165.226 134.355,167.392 133.5,169.5C 133.167,169 132.833,168.5 132.5,168C 133.274,165.846 133.941,163.679 134.5,161.5 Z M 185.5,161.5 C 186.222,161.918 186.722,162.584 187,163.5C 187.667,167.167 187.667,170.833 187,174.5C 186.631,170.137 186.131,165.804 185.5,161.5 Z M 134.5,174.5 C 134.674,176.861 135.007,179.194 135.5,181.5C 134.069,180.22 133.402,178.553 133.5,176.5C 133.328,175.508 133.662,174.842 134.5,174.5 Z M 185.5,181.5 C 185.5,180.833 185.5,180.167 185.5,179.5C 185.639,177.663 186.306,177.33 187.5,178.5C 187.058,179.739 186.391,180.739 185.5,181.5 Z M 158.5,196.5 C 160.5,197.167 162.5,197.833 164.5,198.5C 160.085,198.695 155.751,198.195 151.5,197C 153.81,196.503 156.143,196.337 158.5,196.5 Z M 181.5,197.5 C 182.105,199.481 183.105,199.815 184.5,198.5C 185.5,200.167 186.833,201.5 188.5,202.5C 188.932,203.71 189.599,204.71 190.5,205.5C 191.5,207.167 192.833,208.5 194.5,209.5C 194.427,211.027 195.094,212.027 196.5,212.5C 197.5,212.833 198.167,213.5 198.5,214.5C 199.5,214.833 200.167,215.5 200.5,216.5C 199.167,216.833 199.167,217.167 200.5,217.5C 200.263,218.791 200.596,219.791 201.5,220.5C 197.761,222.398 194.428,224.898 191.5,228C 187.743,229.962 183.91,231.795 180,233.5C 177.795,223.348 174.961,213.348 171.5,203.5C 174.861,201.489 178.194,199.489 181.5,197.5 Z M 166.5,203.5 C 166.577,204.75 167.244,205.583 168.5,206C 167.536,207.725 166.869,209.559 166.5,211.5C 165.833,211.5 165.5,211.167 165.5,210.5C 165.198,207.941 165.532,205.607 166.5,203.5 Z M 167.5,215.5 C 169.532,221.625 171.198,227.959 172.5,234.5C 171.883,234.389 171.383,234.056 171,233.5C 169.193,227.608 168.026,221.608 167.5,215.5 Z"/></g>
<g><path style="opacity:0.004" fill="#fff" d="M 192.5,106.5 C 194.179,106.285 195.179,106.952 195.5,108.5C 194.29,108.068 193.29,107.401 192.5,106.5 Z"/></g>
<g><path style="opacity:0.008" fill="#fff" d="M 202.5,112.5 C 204.5,112.5 205.5,113.5 205.5,115.5C 204.167,114.833 203.167,113.833 202.5,112.5 Z"/></g>
<g><path style="opacity:0.149" fill="#fff" d="M 217.5,126.5 C 219.218,128.223 220.551,130.223 221.5,132.5C 218.956,131.292 217.622,129.292 217.5,126.5 Z"/></g>
<g><path style="opacity:0.004" fill="#fff" d="M 288.5,138.5 C 287.833,138.5 287.5,138.833 287.5,139.5C 286.5,139.5 285.5,139.5 284.5,139.5C 285.538,137.481 286.872,137.147 288.5,138.5 Z"/></g>
<g><path style="opacity:0.992" fill="#fff" d="M 414.5,196.5 C 413.549,197.919 413.216,199.585 413.5,201.5C 409.958,201.187 406.625,201.521 403.5,202.5C 402.833,202.5 402.167,202.5 401.5,202.5C 400.791,201.596 399.791,201.263 398.5,201.5C 398.818,196.968 398.485,192.634 397.5,188.5C 397.5,185.5 397.5,182.5 397.5,179.5C 398.001,175.412 398.001,171.412 397.5,167.5C 397.5,165.167 397.5,162.833 397.5,160.5C 398.468,158.393 398.802,156.059 398.5,153.5C 392.167,153.5 385.833,153.5 379.5,153.5C 379.772,149.098 379.439,144.765 378.5,140.5C 378.833,139.5 379.5,138.833 380.5,138.5C 397.216,139.583 413.883,139.583 430.5,138.5C 431.167,138.833 431.833,139.167 432.5,139.5C 433.494,144.456 433.827,149.456 433.5,154.5C 427.167,154.5 420.833,154.5 414.5,154.5C 414.5,168.5 414.5,182.5 414.5,196.5 Z"/></g>
<g><path style="opacity:0.989" fill="#fff" d="M 288.5,138.5 C 292.767,138.203 296.934,138.536 301,139.5C 309.449,157.35 316.616,175.683 322.5,194.5C 323.455,196.746 324.122,199.079 324.5,201.5C 318.833,201.5 313.167,201.5 307.5,201.5C 307.5,200.833 307.167,200.5 306.5,200.5C 306.672,199.508 306.338,198.842 305.5,198.5C 305.037,195.67 304.371,193.003 303.5,190.5C 299.849,189.835 296.015,189.501 292,189.5C 287.771,189.51 283.938,190.177 280.5,191.5C 280.042,195.166 279.042,198.666 277.5,202C 271.509,202.499 265.509,202.666 259.5,202.5C 262.812,191.76 266.812,181.26 271.5,171C 269.859,169.354 270.193,168.354 272.5,168C 273.389,164.668 274.889,161.168 277,157.5C 278.014,152.478 279.848,147.811 282.5,143.5C 281.501,141.495 282.168,140.162 284.5,139.5C 285.5,139.5 286.5,139.5 287.5,139.5C 288.167,139.5 288.5,139.167 288.5,138.5 Z M 292.5,163.5 C 292.738,165.404 293.738,166.738 295.5,167.5C 295.328,168.492 295.662,169.158 296.5,169.5C 294.861,173.243 292.195,174.243 288.5,172.5C 289.452,169.303 290.785,166.303 292.5,163.5 Z"/></g>
<g><path style="opacity:0.985" fill="#fff" d="M 347.5,184.5 C 347.5,184.833 347.5,185.167 347.5,185.5C 346.167,185.833 346.167,186.167 347.5,186.5C 347.833,186.5 348.167,186.5 348.5,186.5C 358.167,186.5 367.833,186.5 377.5,186.5C 377.5,191.833 377.5,197.167 377.5,202.5C 361.833,202.5 346.167,202.5 330.5,202.5C 330.333,181.497 330.5,160.497 331,139.5C 335.848,138.463 340.848,138.463 346,139.5C 346.169,154.672 346.669,169.672 347.5,184.5 Z"/></g>
<g><path style="opacity:0.031" fill="#fff" d="M 151.5,144.5 C 156.5,143.167 161.5,143.167 166.5,144.5C 164.901,144.232 163.568,144.566 162.5,145.5C 161.5,145.5 160.5,145.5 159.5,145.5C 157.052,144.527 154.385,144.194 151.5,144.5 Z"/></g>
<g><path style="opacity:0.004" fill="#fff" d="M 147.5,146.5 C 148.568,145.566 149.901,145.232 151.5,145.5C 151.5,145.833 151.5,146.167 151.5,146.5C 150.833,146.833 150.167,147.167 149.5,147.5C 149.158,146.662 148.492,146.328 147.5,146.5 Z"/></g>
<g><path style="opacity:0.007" fill="#fff" d="M 170.5,145.5 C 171.338,145.842 171.672,146.508 171.5,147.5C 170.508,147.672 169.842,147.338 169.5,146.5C 170.167,146.5 170.5,146.167 170.5,145.5 Z"/></g>
<g><path style="opacity:0.011" fill="#fff" d="M 147.5,147.5 C 147.5,147.833 147.5,148.167 147.5,148.5C 146.233,149.087 145.233,149.087 144.5,148.5C 145.325,147.614 146.325,147.281 147.5,147.5 Z"/></g>
<g><path style="opacity:0.012" fill="#fff" d="M 176.5,148.5 C 177.5,148.833 178.167,149.5 178.5,150.5C 178.5,151.167 178.5,151.833 178.5,152.5C 176.896,151.713 176.229,150.38 176.5,148.5 Z"/></g>
<g><path style="opacity:0.987" fill="#fff" d="M 617.5,151.5 C 617.822,157.358 617.489,163.025 616.5,168.5C 611.552,167.137 606.552,166.137 601.5,165.5C 599.801,165.34 598.134,165.506 596.5,166C 595.244,166.417 594.577,167.25 594.5,168.5C 593.531,169.309 592.698,170.309 592,171.5C 591.195,174.696 591.362,177.696 592.5,180.5C 592.5,181.167 592.833,181.5 593.5,181.5C 594.058,182.79 595.058,183.623 596.5,184C 596.167,184.333 595.833,184.667 595.5,185C 602.975,187.929 610.308,187.429 617.5,183.5C 618.807,189.388 618.807,195.221 617.5,201C 604.868,205.552 593.202,203.885 582.5,196C 580.84,194.512 579.84,192.679 579.5,190.5C 577.226,186.337 575.56,182.004 574.5,177.5C 574.73,159.761 583.897,150.094 602,148.5C 607.341,148.934 612.508,149.934 617.5,151.5 Z"/></g>
<g><path style="opacity:0.004" fill="#fff" d="M 142.5,150.5 C 142.573,152.027 141.906,153.027 140.5,153.5C 140.5,152.833 140.167,152.5 139.5,152.5C 140.29,151.599 141.29,150.932 142.5,150.5 Z"/></g>
<g><path style="opacity:0.994" fill="#1a1a1a" d="M 498.5,165.5 C 497.726,164.853 496.726,164.52 495.5,164.5C 493.645,164.34 492.312,165.007 491.5,166.5C 490.542,167.962 489.376,169.295 488,170.5C 487.5,179.827 487.334,189.161 487.5,198.5C 486.596,199.209 486.263,200.209 486.5,201.5C 481.968,201.182 477.634,201.515 473.5,202.5C 472.005,202.585 471.005,201.919 470.5,200.5C 471.639,191.548 471.805,182.548 471,173.5C 470.764,171.189 469.931,169.189 468.5,167.5C 468.027,166.094 467.027,165.427 465.5,165.5C 461.574,165.047 458.408,166.38 456,169.5C 454.594,180.436 454.094,191.436 454.5,202.5C 449.167,202.5 443.833,202.5 438.5,202.5C 438.333,190.162 438.5,177.829 439,165.5C 439.754,162.316 441.254,159.649 443.5,157.5C 446.117,156.214 448.45,154.547 450.5,152.5C 452.38,152.771 453.713,152.104 454.5,150.5C 463.864,147.379 472.198,149.379 479.5,156.5C 491.159,146.288 502.992,146.288 515,156.5C 516.667,159.833 518.333,163.167 520,166.5C 522.299,177.734 522.965,189.068 522,200.5C 519.106,201.78 515.939,202.446 512.5,202.5C 509.5,202.167 506.5,201.833 503.5,201.5C 503.579,191.948 503.412,182.282 503,172.5C 502.47,169.415 500.97,167.082 498.5,165.5 Z"/></g>
<g><path style="opacity:0.086" fill="#bebebe" d="M 454.5,150.5 C 453.713,152.104 452.38,152.771 450.5,152.5C 451.514,151.326 452.847,150.66 454.5,150.5 Z"/></g>
<g><path style="opacity:0.227" fill="#808080" d="M 539.5,150.5 C 537.967,152.245 535.967,153.245 533.5,153.5C 535.033,151.755 537.033,150.755 539.5,150.5 Z"/></g>
<g><path style="opacity:0.351" fill="#767676" d="M 379.5,153.5 C 385.833,153.5 392.167,153.5 398.5,153.5C 398.802,156.059 398.468,158.393 397.5,160.5C 397.249,158.83 396.582,157.33 395.5,156C 396.167,155.667 396.833,155.333 397.5,155C 391.319,154.828 385.319,154.328 379.5,153.5 Z"/></g>
<g><path style="opacity:0.125" fill="#9b9b9b" d="M 450.5,152.5 C 448.45,154.547 446.117,156.214 443.5,157.5C 444.992,154.677 447.326,153.01 450.5,152.5 Z"/></g>
<g><path style="opacity:0.063" fill="#a9a9a9" d="M 532.5,154.5 C 531.564,155.974 530.23,156.974 528.5,157.5C 529.035,155.554 530.368,154.554 532.5,154.5 Z"/></g>
<g><path style="opacity:0.163" fill="#949494" d="M 163.5,159.5 C 160.763,159.401 158.096,159.735 155.5,160.5C 156.492,158.974 157.992,158.307 160,158.5C 161.385,158.514 162.551,158.848 163.5,159.5 Z"/></g>
<g><path style="opacity:0.013" fill="#ebebeb" d="M 295.5,167.5 C 293.738,166.738 292.738,165.404 292.5,163.5C 292.343,162.127 292.51,160.793 293,159.5C 293.658,162.285 294.491,164.951 295.5,167.5 Z"/></g>
<g><path style="opacity:0.322" fill="#9c9c9c" d="M 617.5,151.5 C 618.817,157.346 618.817,163.346 617.5,169.5C 616.893,169.376 616.56,169.043 616.5,168.5C 617.489,163.025 617.822,157.358 617.5,151.5 Z"/></g>
<g><path style="opacity:0.145" fill="#c3c3c3" d="M 498.5,165.5 C 496.097,165.448 493.764,165.781 491.5,166.5C 492.312,165.007 493.645,164.34 495.5,164.5C 496.726,164.52 497.726,164.853 498.5,165.5 Z"/></g>
<g><path style="opacity:0.118" fill="#c0c0c0" d="M 465.5,165.5 C 467.027,165.427 468.027,166.094 468.5,167.5C 466.973,167.573 465.973,166.906 465.5,165.5 Z"/></g>
<g><path style="opacity:0.005" fill="#f2e6f1" d="M 557.5,165.5 C 548.259,165.52 548.259,166.186 557.5,167.5C 557,167.833 556.5,168.167 556,168.5C 552.354,167.246 548.854,167.246 545.5,168.5C 544.833,168.167 544.167,167.833 543.5,167.5C 543.5,166.833 543.5,166.167 543.5,165.5C 548.167,164.167 552.833,164.167 557.5,165.5 Z"/></g>
<g><path style="opacity:0.088" fill="#c8c8c8" d="M 601.5,165.5 C 599.188,166.341 596.855,167.341 594.5,168.5C 594.577,167.25 595.244,166.417 596.5,166C 598.134,165.506 599.801,165.34 601.5,165.5 Z"/></g>
<g><path style="opacity:0.005" fill="#fefffe" d="M 397.5,167.5 C 398.001,171.412 398.001,175.412 397.5,179.5C 396.167,175.5 396.167,171.5 397.5,167.5 Z"/></g>
<g><path style="opacity:0.184" fill="#c4c4c4" d="M 527.5,158.5 C 527.5,163.5 527.5,168.5 527.5,173.5C 526.79,171.107 526.123,168.607 525.5,166C 526.123,163.393 526.79,160.893 527.5,158.5 Z"/></g>
<g><path style="opacity:0.004" fill="#f2f2f2" d="M 132.5,171.5 C 132.833,171.5 133.167,171.5 133.5,171.5C 133.328,172.492 133.662,173.158 134.5,173.5C 134.5,173.833 134.5,174.167 134.5,174.5C 133.662,174.842 133.328,175.508 133.5,176.5C 132.549,175.081 132.216,173.415 132.5,171.5 Z"/></g>
<g><path style="opacity:0.995" fill="#1a1a1a" d="M 557.5,165.5 C 552.833,164.167 548.167,164.167 543.5,165.5C 542.167,166.167 542.167,166.833 543.5,167.5C 544.167,167.833 544.833,168.167 545.5,168.5C 554.384,167.683 562.218,170.016 569,175.5C 574.583,188.496 570.749,197.33 557.5,202C 547.462,203.786 537.462,203.453 527.5,201C 525.58,195.803 524.913,190.303 525.5,184.5C 534.647,186.99 543.981,187.99 553.5,187.5C 554.167,187.5 554.5,187.167 554.5,186.5C 555.833,186.167 555.833,185.833 554.5,185.5C 553.533,184.194 552.199,183.527 550.5,183.5C 548.052,182.527 545.385,182.194 542.5,182.5C 539.432,181.978 536.432,181.145 533.5,180C 531.101,178.02 529.101,175.853 527.5,173.5C 527.5,168.5 527.5,163.5 527.5,158.5C 527.5,157.833 527.833,157.5 528.5,157.5C 530.23,156.974 531.564,155.974 532.5,154.5C 532.5,153.833 532.833,153.5 533.5,153.5C 535.967,153.245 537.967,152.245 539.5,150.5C 548.828,148.427 558.161,148.76 567.5,151.5C 568.192,156.048 568.859,160.548 569.5,165C 568.774,166.397 567.607,167.231 566,167.5C 563.083,167.018 560.249,166.351 557.5,165.5 Z"/></g>
<g><path style="opacity:0.004" fill="#fefffe" d="M 436.5,172.5 C 437.658,181.991 437.825,191.658 437,201.5C 436.5,191.839 436.334,182.172 436.5,172.5 Z"/></g>
<g><path style="opacity:0.055" fill="#d2d2d2" d="M 296.5,169.5 C 297.338,169.842 297.672,170.508 297.5,171.5C 296.308,172.566 296.641,173.399 298.5,174C 294.5,174.667 290.5,174.667 286.5,174C 287.416,173.722 288.082,173.222 288.5,172.5C 292.195,174.243 294.861,173.243 296.5,169.5 Z"/></g>
<g><path style="opacity:0.004" fill="#fefffe" d="M 593.5,181.5 C 592.833,181.5 592.5,181.167 592.5,180.5C 592.343,179.127 592.51,177.793 593,176.5C 593.273,178.101 593.773,179.601 594.5,181C 594.272,181.399 593.938,181.565 593.5,181.5 Z"/></g>
<g><path style="opacity:0.114" fill="#c2c2c2" d="M 89.5,158.5 C 89.5908,167.787 89.5908,177.12 89.5,186.5C 87.255,177.097 87.255,167.764 89.5,158.5 Z"/></g>
<g><path style="opacity:0.161" fill="#c3c3c3" d="M 168.5,178.5 C 168.938,178.435 169.272,178.601 169.5,179C 168.922,180.417 167.922,181.25 166.5,181.5C 166.932,180.29 167.599,179.29 168.5,178.5 Z"/></g>
<g><path style="opacity:0.004" fill="#d9d9d9" d="M 185.5,179.5 C 185.5,180.167 185.5,180.833 185.5,181.5C 185.48,183.551 184.813,184.218 183.5,183.5C 183.994,181.974 184.661,180.641 185.5,179.5 Z"/></g>
<g><path style="opacity:0.006" fill="#ececec" d="M 542.5,182.5 C 545.385,182.194 548.052,182.527 550.5,183.5C 552.199,183.527 553.533,184.194 554.5,185.5C 554.5,185.833 554.5,186.167 554.5,186.5C 554.5,187.167 554.167,187.5 553.5,187.5C 548.983,186.834 544.317,186.167 539.5,185.5C 540.993,184.859 541.993,183.859 542.5,182.5 Z"/></g>
<g><path style="opacity:0.373" fill="#8f8f8f" d="M 574.5,177.5 C 575.56,182.004 577.226,186.337 579.5,190.5C 578.504,190.586 577.671,190.252 577,189.5C 575.228,185.687 574.395,181.687 574.5,177.5 Z"/></g>
<g><path style="opacity:0.004" fill="#fefffe" d="M 347.5,184.5 C 349.698,184.409 350.031,185.075 348.5,186.5C 348.167,186.5 347.833,186.5 347.5,186.5C 347.5,186.167 347.5,185.833 347.5,185.5C 347.5,185.167 347.5,184.833 347.5,184.5 Z"/></g>
<g><path style="opacity:0.145" fill="#a2a2a2" d="M 135.5,182.5 C 137.18,183.782 138.513,185.449 139.5,187.5C 137.124,186.794 135.79,185.127 135.5,182.5 Z"/></g>
<g><path style="opacity:0.012" fill="#b4b4b4" d="M 182.5,185.5 C 182.5,186.167 182.5,186.833 182.5,187.5C 181.833,187.5 181.5,187.833 181.5,188.5C 181.167,188.5 180.833,188.5 180.5,188.5C 180.427,186.973 181.094,185.973 182.5,185.5 Z"/></g>
<g><path style="opacity:0.004" fill="#c9c9c9" d="M 179.5,189.5 C 179.446,191.632 178.446,192.965 176.5,193.5C 176.5,193.167 176.5,192.833 176.5,192.5C 177.1,191.1 178.1,190.1 179.5,189.5 Z"/></g>
<g><path style="opacity:0.012" fill="#f6f6f6" d="M 303.5,190.5 C 295.747,190.201 288.08,190.534 280.5,191.5C 283.938,190.177 287.771,189.51 292,189.5C 296.015,189.501 299.849,189.835 303.5,190.5 Z"/></g>
<g><path style="opacity:0.016" fill="#aaaaaa" d="M 397.5,188.5 C 398.485,192.634 398.818,196.968 398.5,201.5C 399.791,201.263 400.791,201.596 401.5,202.5C 399.856,202.714 398.356,202.38 397,201.5C 397.077,197.195 397.244,192.862 397.5,188.5 Z"/></g>
<g><path style="opacity:0.005" fill="#efefef" d="M 158.5,196.5 C 160.833,196.5 163.167,196.5 165.5,196.5C 165.842,197.338 166.508,197.672 167.5,197.5C 166.791,198.404 165.791,198.737 164.5,198.5C 162.5,197.833 160.5,197.167 158.5,196.5 Z"/></g>
<g><path style="opacity:0.005" fill="#fefffe" d="M 182.5,196.5 C 183.167,197.167 183.833,197.833 184.5,198.5C 183.105,199.815 182.105,199.481 181.5,197.5C 181.5,196.833 181.833,196.5 182.5,196.5 Z"/></g>
<g><path style="opacity:0.004" fill="#fefffe" d="M 305.5,198.5 C 306.338,198.842 306.672,199.508 306.5,200.5C 304.895,199.994 304.561,199.327 305.5,198.5 Z"/></g>
<g><path style="opacity:0.227" fill="#8e8e8e" d="M 322.5,194.5 C 324.982,196.503 325.982,199.169 325.5,202.5C 319.31,202.823 313.31,202.49 307.5,201.5C 313.167,201.5 318.833,201.5 324.5,201.5C 324.122,199.079 323.455,196.746 322.5,194.5 Z"/></g>
<g><path style="opacity:0.227" fill="#939393" d="M 414.5,196.5 C 414.5,198.5 414.5,200.5 414.5,202.5C 410.833,202.5 407.167,202.5 403.5,202.5C 406.625,201.521 409.958,201.187 413.5,201.5C 413.216,199.585 413.549,197.919 414.5,196.5 Z"/></g>
<g><path style="opacity:0.227" fill="#868686" d="M 487.5,198.5 C 487.5,199.833 487.5,201.167 487.5,202.5C 482.833,202.5 478.167,202.5 473.5,202.5C 477.634,201.515 481.968,201.182 486.5,201.5C 486.263,200.209 486.596,199.209 487.5,198.5 Z"/></g>
<g><path style="opacity:0.028" fill="#e6e6e8" d="M 166.5,203.5 C 165.532,205.607 165.198,207.941 165.5,210.5C 164.2,207.976 164.2,205.309 165.5,202.5C 166.107,202.624 166.44,202.957 166.5,203.5 Z"/></g>
<g><path style="opacity:0.024" fill="#dadada" d="M 188.5,202.5 C 190.048,202.821 190.715,203.821 190.5,205.5C 189.599,204.71 188.932,203.71 188.5,202.5 Z"/></g>
<g><path style="opacity:0.047" fill="#b6b6b6" d="M 225.5,203.5 C 225.573,205.027 224.906,206.027 223.5,206.5C 223.427,204.973 224.094,203.973 225.5,203.5 Z"/></g>
<g><path style="opacity:0.005" fill="#f2f2f2" d="M 169.5,209.5 C 168.167,210.833 168.167,212.167 169.5,213.5C 170.11,214.391 170.443,215.391 170.5,216.5C 171.017,218.19 171.35,219.857 171.5,221.5C 171.782,225.435 173.115,228.935 175.5,232C 174.167,232.667 174.167,233.333 175.5,234C 174.552,234.483 173.552,234.649 172.5,234.5C 171.198,227.959 169.532,221.625 167.5,215.5C 167.768,213.901 167.434,212.568 166.5,211.5C 166.869,209.559 167.536,207.725 168.5,206C 167.244,205.583 166.577,204.75 166.5,203.5C 167.117,203.389 167.617,203.056 168,202.5C 169.202,204.677 169.702,207.011 169.5,209.5 Z"/></g>
<g><path style="opacity:0.004" fill="#d8d8d8" d="M 194.5,209.5 C 197.007,209.632 197.674,210.632 196.5,212.5C 195.094,212.027 194.427,211.027 194.5,209.5 Z"/></g>
<g><path style="opacity:0.145" fill="#797979" d="M 104.5,217.5 C 107.5,218.5 109.5,220.5 110.5,223.5C 108.167,221.833 106.167,219.833 104.5,217.5 Z"/></g>
<g><path style="opacity:0.005" fill="#fefffe" d="M 200.5,217.5 C 201.167,217.5 201.833,217.5 202.5,217.5C 202.328,218.492 202.662,219.158 203.5,219.5C 203.158,220.338 202.492,220.672 201.5,220.5C 200.596,219.791 200.263,218.791 200.5,217.5 Z"/></g>
<g><path style="opacity:0.004" fill="#fefffe" d="M 125.5,235.5 C 124.833,236.167 124.833,236.167 125.5,235.5 Z"/></g>
</svg>
