<?xml version="1.0" encoding="UTF-8"?>
<!DOCTYPE svg PUBLIC "-//W3C//DTD SVG 1.1//EN" "http://www.w3.org/Graphics/SVG/1.1/DTD/svg11.dtd">
<svg xmlns="http://www.w3.org/2000/svg" version="1.1" width="877px" height="407px" style="shape-rendering:geometricPrecision; text-rendering:geometricPrecision; image-rendering:optimizeQuality; fill-rule:evenodd; clip-rule:evenodd" xmlns:xlink="http://www.w3.org/1999/xlink">
<g><path style="opacity:1" fill="#333" d="M -0.5,-0.5 C 291.833,-0.5 584.167,-0.5 876.5,-0.5C 876.5,135.167 876.5,270.833 876.5,406.5C 584.167,406.5 291.833,406.5 -0.5,406.5C -0.5,270.833 -0.5,135.167 -0.5,-0.5 Z"/></g>
<g><path style="opacity:1" fill="#fff" d="M 180.5,119.5 C 223.606,117.288 254.106,135.621 272,174.5C 284.45,216.482 273.283,250.649 238.5,277C 206.052,295.607 174.052,294.94 142.5,275C 108.959,247.347 99.1261,212.847 113,171.5C 126.973,142.948 149.473,125.614 180.5,119.5 Z"/></g>
<g><path style="opacity:1" fill="#fff" d="M 331.5,240.5 C 324.978,240.823 318.645,240.49 312.5,239.5C 322.033,215.567 331.366,191.567 340.5,167.5C 346.868,167.17 353.202,167.504 359.5,168.5C 369.073,192.39 378.74,216.224 388.5,240C 381.842,240.5 375.175,240.666 368.5,240.5C 367.263,235.525 365.596,230.691 363.5,226C 354.482,225.168 345.482,225.335 336.5,226.5C 334.432,231.038 332.765,235.705 331.5,240.5 Z"/></g>
<g><path style="opacity:1" fill="#fff" d="M 413.5,167.5 C 413.5,186.5 413.5,205.5 413.5,224.5C 425.833,224.5 438.167,224.5 450.5,224.5C 450.5,229.833 450.5,235.167 450.5,240.5C 432.5,240.5 414.5,240.5 396.5,240.5C 396.5,216.167 396.5,191.833 396.5,167.5C 402.167,167.5 407.833,167.5 413.5,167.5 Z"/></g>
<g><path style="opacity:1" fill="#fff" d="M 516.5,183.5 C 509.167,183.5 501.833,183.5 494.5,183.5C 494.5,202.5 494.5,221.5 494.5,240.5C 488.833,240.5 483.167,240.5 477.5,240.5C 477.5,221.5 477.5,202.5 477.5,183.5C 470.167,183.5 462.833,183.5 455.5,183.5C 455.5,178.167 455.5,172.833 455.5,167.5C 475.833,167.5 496.167,167.5 516.5,167.5C 516.5,172.833 516.5,178.167 516.5,183.5 Z"/></g>
<g><path style="opacity:1" fill="#333" d="M 185.5,170.5 C 206.75,169.527 220.25,179.194 226,199.5C 225.591,228.241 211.091,241.075 182.5,238C 164.621,231.419 156.454,218.585 158,199.5C 161.573,184.429 170.74,174.762 185.5,170.5 Z"/></g>
<g><path style="opacity:1" fill="#fff" d="M 185.5,174.5 C 209.834,173.715 222.001,185.381 222,209.5C 217.219,228.48 205.052,236.98 185.5,235C 163.943,227.048 157.11,212.215 165,190.5C 170.021,182.624 176.854,177.291 185.5,174.5 Z"/></g>
<g><path style="opacity:1" fill="#fff" d="M 545.5,180.5 C 556.969,178.25 566.303,181.583 573.5,190.5C 584.826,178.775 597.492,177.275 611.5,186C 615.877,190.043 619.044,194.876 621,200.5C 621.5,213.829 621.667,227.163 621.5,240.5C 615.5,240.5 609.5,240.5 603.5,240.5C 603.667,228.162 603.5,215.829 603,203.5C 601.143,198.966 597.809,196.966 593,197.5C 588.191,196.966 584.857,198.966 583,203.5C 582.5,215.829 582.333,228.162 582.5,240.5C 576.5,240.5 570.5,240.5 564.5,240.5C 564.667,228.162 564.5,215.829 564,203.5C 562.143,198.966 558.809,196.966 554,197.5C 549.191,196.966 545.857,198.966 544,203.5C 543.5,215.829 543.333,228.162 543.5,240.5C 537.5,240.5 531.5,240.5 525.5,240.5C 525.193,226.63 525.526,212.797 526.5,199C 530.095,189.904 536.428,183.737 545.5,180.5 Z"/></g>
<g><path style="opacity:1" fill="#fff" d="M 649.5,180.5 C 659.902,180.258 670.235,180.925 680.5,182.5C 680.5,188.167 680.5,193.833 680.5,199.5C 669.908,197.686 659.241,197.186 648.5,198C 647.167,199 647.167,200 648.5,201C 655.115,202.59 661.782,203.923 668.5,205C 683.053,209.655 686.886,218.821 680,232.5C 674.916,237.625 668.749,240.458 661.5,241C 651.088,241.845 640.755,241.345 630.5,239.5C 630.5,233.833 630.5,228.167 630.5,222.5C 642.571,224.8 654.571,224.967 666.5,223C 665.449,221.615 664.116,220.615 662.5,220C 655.058,218.76 647.725,217.094 640.5,215C 629.965,208.22 627.798,199.386 634,188.5C 638.361,184.071 643.528,181.404 649.5,180.5 Z"/></g>
<g><path style="opacity:1" fill="#fff" d="M 738.5,182.5 C 739.117,188.598 738.45,194.265 736.5,199.5C 729.253,197.896 721.919,197.396 714.5,198C 706.545,202.476 704.378,208.976 708,217.5C 711.441,223.379 716.608,225.713 723.5,224.5C 728.316,224.577 732.982,223.911 737.5,222.5C 738.489,227.975 738.822,233.642 738.5,239.5C 729.595,241.381 720.595,241.881 711.5,241C 693.658,234.803 686.158,222.303 689,203.5C 693.784,187.765 704.451,180.098 721,180.5C 726.931,180.452 732.764,181.118 738.5,182.5 Z"/></g>
<g><path style="opacity:1" fill="#333" d="M 455.5,183.5 C 462.833,183.5 470.167,183.5 477.5,183.5C 477.5,202.5 477.5,221.5 477.5,240.5C 476.503,222.007 476.17,203.341 476.5,184.5C 469.313,184.825 462.313,184.491 455.5,183.5 Z"/></g>
<g><path style="opacity:1" fill="#333" d="M 516.5,183.5 C 509.687,184.491 502.687,184.825 495.5,184.5C 495.5,203.5 495.5,222.5 495.5,241.5C 489.31,241.823 483.31,241.49 477.5,240.5C 483.167,240.5 488.833,240.5 494.5,240.5C 494.5,221.5 494.5,202.5 494.5,183.5C 501.833,183.5 509.167,183.5 516.5,183.5 Z"/></g>
<g><path style="opacity:1" fill="#333" d="M 738.5,182.5 C 739.49,188.31 739.823,194.31 739.5,200.5C 738.209,200.737 737.209,200.404 736.5,199.5C 738.45,194.265 739.117,188.598 738.5,182.5 Z"/></g>
<g><path style="opacity:1" fill="#333" d="M 188.5,189.5 C 201.313,189.478 207.479,195.811 207,208.5C 203.147,218.844 195.98,222.344 185.5,219C 176.064,212.957 174.23,205.124 180,195.5C 182.322,192.605 185.155,190.605 188.5,189.5 Z"/></g>
<g><path style="opacity:1" fill="#333" d="M 349.5,188.5 C 350.117,188.611 350.617,188.944 351,189.5C 353.468,196.095 355.635,202.761 357.5,209.5C 352.456,209.827 347.456,209.494 342.5,208.5C 345.235,201.96 347.569,195.294 349.5,188.5 Z"/></g>
<g><path style="opacity:1" fill="#333" d="M 413.5,167.5 C 414.497,185.993 414.83,204.659 414.5,223.5C 426.678,223.172 438.678,223.505 450.5,224.5C 438.167,224.5 425.833,224.5 413.5,224.5C 413.5,205.5 413.5,186.5 413.5,167.5 Z"/></g>
<g><path style="opacity:1" fill="#333" d="M 737.5,222.5 C 737.56,221.957 737.893,221.624 738.5,221.5C 739.817,227.654 739.817,233.654 738.5,239.5C 738.822,233.642 738.489,227.975 737.5,222.5 Z"/></g>
<g><path style="opacity:1" fill="#333" d="M 216.5,234.5 C 217.552,234.351 218.552,234.517 219.5,235C 227.984,244.318 236.65,253.484 245.5,262.5C 236.358,271.074 225.692,277.074 213.5,280.5C 210.733,267.599 207.733,254.766 204.5,242C 209.036,240.238 213.036,237.738 216.5,234.5 Z"/></g>
<g><path style="opacity:1" fill="#333" d="M 312.5,239.5 C 318.645,240.49 324.978,240.823 331.5,240.5C 324.989,241.818 318.322,241.818 311.5,240.5C 311.624,239.893 311.957,239.56 312.5,239.5 Z"/></g>
<g><path style="opacity:1" fill="#333" d="M 195.5,242.5 C 197.792,242.244 199.959,242.577 202,243.5C 204.912,255.646 207.745,267.813 210.5,280C 208.713,282.134 206.38,282.967 203.5,282.5C 201.039,269.12 198.373,255.787 195.5,242.5 Z"/></g>
</svg>
