<?xml version="1.0" encoding="UTF-8"?>
<svg version="1.1" xmlns="http://www.w3.org/2000/svg" width="3882" height="1526">
<path d="M0 0 C1281.06 0 2562.12 0 3882 0 C3882 503.58 3882 1007.16 3882 1526 C2600.94 1526 1319.88 1526 0 1526 C0 1022.42 0 518.84 0 0 Z " fill="none" transform="translate(0,0)"/>
<path d="M0 0 C0.49677246 0.42829102 0.99354492 0.85658203 1.50537109 1.29785156 C8.80667516 7.63693232 15.09453453 14.30991585 21 22 C21.70382812 22.86496094 22.40765625 23.72992188 23.1328125 24.62109375 C27.96846339 30.73065267 32.06479041 37.15915941 36 43.875 C36.46188721 44.64505371 36.92377441 45.41510742 37.3996582 46.20849609 C47.29639422 63.51880575 52.35321421 79.36438131 52.09765625 99.3046875 C52.10364255 101.50575621 52.11362617 103.70681688 52.12715149 105.90785217 C52.15288001 111.95549234 52.12293829 118.00172225 52.08275604 124.0492363 C52.05182125 129.89189827 52.06037163 135.73441286 52.06823063 141.57713211 C52.08010992 150.96229867 52.07867059 160.34736107 52.05133057 169.73249817 C51.98395031 193.33803982 52.05256237 216.94137962 52.16306013 240.54672503 C52.22879257 254.7849443 52.27267834 269.02323806 52.31379032 283.26154709 C52.32016563 285.45148474 52.32656128 287.64142233 52.33297729 289.83135986 C52.33613392 290.91341635 52.33929055 291.99547283 52.34254283 293.1103189 C52.36582038 300.75480671 52.3995402 308.39920914 52.4367981 316.04364014 C52.4822236 325.46267913 52.50876408 334.8815675 52.51281816 344.30071801 C52.51539412 349.17369786 52.5262157 354.04629737 52.55892372 358.9191761 C52.58898712 363.43312227 52.59540732 367.94648879 52.58376491 372.46051431 C52.58358924 374.09692986 52.59180932 375.73337362 52.60950387 377.36969352 C52.71015251 387.21242365 51.67682653 395.11074274 47 404 C46.42636719 405.13695312 45.85273438 406.27390625 45.26171875 407.4453125 C41.34223918 414.11718094 37.03236149 420.12575848 32 426 C31.33484375 426.81082031 30.6696875 427.62164063 29.984375 428.45703125 C17.19007463 443.50218076 0.05609236 453.46999966 -18 461 C-19.36318359 461.61101562 -19.36318359 461.61101562 -20.75390625 462.234375 C-31.41231492 466.73675363 -42.69744229 468.7457379 -54 471 C-54.79325684 471.17329834 -55.58651367 471.34659668 -56.40380859 471.52514648 C-59.46696791 472.08541025 -62.49797379 472.35729055 -65.6015625 472.61328125 C-93.75125163 474.5318653 -93.75125163 474.5318653 -120 484 C-120.84691406 484.42925781 -121.69382812 484.85851562 -122.56640625 485.30078125 C-131.88949731 490.35375427 -138.15317058 498.32405956 -144 507 C-132.89920271 513.21644648 -120.1278831 515.5920454 -107.8125 518.375 C-107.15726349 518.52340332 -106.50202698 518.67180664 -105.82693481 518.82470703 C-95.24840749 521.20603967 -84.63031211 523.20722204 -73.9375 525 C-73.21892822 525.12084961 -72.50035645 525.24169922 -71.76000977 525.36621094 C-68.05041917 525.98936596 -64.34023935 526.60896289 -60.62988281 527.22753906 C-59.08658675 527.48501532 -57.54329252 527.7425025 -56 528 C-55.20412476 528.13257202 -54.40824951 528.26514404 -53.58825684 528.4017334 C8.62163706 538.7963685 8.62163706 538.7963685 32 560 C32.94746094 560.80824219 32.94746094 560.80824219 33.9140625 561.6328125 C43.75155868 570.5719072 53.43531796 586.49627852 54.15779781 599.9352169 C54.18083147 601.66176223 54.18083147 601.66176223 54.20433044 603.42318726 C54.21413089 604.06687016 54.22393133 604.71055306 54.23402876 605.37374151 C54.26550534 607.53086252 54.28998068 609.68800107 54.31420898 611.84521484 C54.33474072 613.39395147 54.35556956 614.94268417 54.37667274 616.49141312 C54.43256546 620.71775154 54.48144247 624.94414482 54.52849507 629.17058992 C54.55872471 631.84753407 54.59082203 634.52445004 54.62341118 637.20136642 C54.93657871 663.14358272 55.05437423 689.08254697 55.03740311 715.02649689 C55.03435673 720.4191805 55.0377684 725.81184739 55.04281616 731.20452881 C55.04359842 732.09546053 55.04438068 732.98639225 55.04518664 733.90432191 C55.04839738 737.49921105 55.05172642 741.09409985 55.05572629 744.68898821 C55.06665709 754.74039475 55.06285374 764.79142575 55.02416992 774.84277344 C54.99260363 783.0773363 54.98935152 791.31137273 55.01892942 799.54595029 C55.03328631 803.83357899 55.03422938 808.12013725 54.99952888 812.40767288 C54.96755645 816.38029501 54.97329925 820.35113385 55.00703049 824.32372475 C55.0127859 825.76277518 55.00526701 827.20195966 54.98243904 828.64084053 C54.76165542 843.53998539 61.12611038 854.0221773 71.3046875 864.58984375 C81.51027887 873.71571314 93.77712012 877.79706832 107.390625 877.40625 C128.2331748 875.0603353 148.77758569 864.24083727 162.49001176 848.30635425 C165.10066508 844.31884545 164.95151064 840.55341326 164.85460567 835.90408707 C164.86197419 834.90977289 164.8693427 833.91545871 164.8769345 832.8910138 C164.89313134 829.55574516 164.85936134 826.22286931 164.82591248 822.88775635 C164.82736702 820.47384425 164.83191992 818.05993237 164.83930641 815.64603114 C164.84838 810.39586612 164.83579354 805.14621265 164.80414772 799.8961544 C164.75725676 792.08854494 164.75074533 784.28126637 164.75281486 776.47353479 C164.75531782 763.33406386 164.72640938 750.19484197 164.68078423 737.05545807 C164.61889815 719.09891307 164.60393209 701.14254262 164.60161258 683.18590221 C164.60048032 674.81574101 164.59711231 666.44558069 164.59320927 658.07542038 C164.5926283 656.81849133 164.5926283 656.81849133 164.59203559 655.53616977 C164.58231788 635.59130845 164.55107891 615.64649059 164.51586914 595.70166016 C164.51433771 594.82906577 164.51280627 593.95647138 164.51122843 593.05743473 C164.47856696 574.47854084 164.4429839 555.89965301 164.40574705 537.32076778 C164.38808217 528.50144349 164.37081122 519.68211846 164.35375977 510.86279297 C164.35206863 509.99249562 164.3503775 509.12219828 164.34863512 508.22552829 C164.31012347 488.33905547 164.27855724 468.45260779 164.2699976 448.56609726 C164.26963529 447.72916354 164.26927299 446.89222983 164.26889971 446.02993449 C164.26545487 437.67178061 164.2633111 429.31362738 164.26306024 420.9554728 C164.26227257 403.02647423 164.24014252 385.09787445 164.17402951 367.16899029 C164.12617055 354.09003836 164.10620457 341.01129367 164.11475115 327.93225452 C164.11886998 320.17317836 164.10065922 312.41491242 164.04982402 304.65599779 C164.01421718 298.84495897 164.02090775 293.03455504 164.043252 287.22347829 C164.04576229 284.88553043 164.03491306 282.54751823 164.00873118 280.20971563 C163.84584632 264.80860947 166.10503118 252.82995782 173 239 C173.53220183 237.92544469 174.06440367 236.85088938 174.61273283 235.74377179 C175.80759093 233.43519342 177.08205905 231.2174074 178.4375 229 C178.90357666 228.21858643 179.36965332 227.43717285 179.84985352 226.63208008 C183.82311255 220.07413573 188.13854429 213.93820789 193 208 C193.44424316 207.45037598 193.88848633 206.90075195 194.34619141 206.33447266 C222.56261084 171.5939137 260.99146372 152.4213367 305.0612793 146.39916992 C312.77812501 145.61710566 320.49896297 145.55966237 328.25 145.5625 C329.56576523 145.56139725 329.56576523 145.56139725 330.90811157 145.56027222 C375.96389905 145.65903949 414.23480505 161.93575235 446.40234375 193.27734375 C461.67733526 208.66354593 472.59449578 228.18072695 481 248 C481.76489022 249.55099427 481.76489022 249.55099427 482.54523277 251.13332176 C485.03500296 257.87791025 484.36944423 265.19659169 484.30020142 272.28115845 C484.29506161 273.95275061 484.29127666 275.6243474 484.28872621 277.29594553 C484.27798478 281.88001068 484.24859283 286.46379545 484.21626544 291.04775214 C484.18476807 295.99539676 484.17091248 300.94309241 484.15527344 305.89080811 C484.12615708 314.46308345 484.08703746 323.03526533 484.04210281 331.60747147 C483.97192618 345.16310315 483.93296429 358.71874172 483.89901733 372.27450562 C483.88701331 376.91490405 483.87480718 381.55530194 483.86253929 386.19569969 C483.85948161 387.35535054 483.85642392 388.51500138 483.85327358 389.70979316 C483.81805629 402.9053414 483.77641885 416.10086669 483.73193359 429.29638672 C483.7278763 430.50237996 483.723819 431.7083732 483.71963875 432.95091169 C483.65311297 452.48934742 483.56350195 472.02762803 483.46803136 491.56594057 C483.37079618 511.63749932 483.30823719 531.708977 483.27521455 551.78074396 C483.25356662 564.15442816 483.20354169 576.52734419 483.11681227 588.90074639 C483.05972908 597.38454317 483.03555852 605.86803443 483.0370272 614.35202153 C483.03683851 619.24329948 483.02207964 624.13337292 482.96752548 629.0243721 C482.91779262 633.50955144 482.91032393 637.99281956 482.93527178 642.47818689 C482.93698218 644.09332049 482.92366477 645.70856173 482.8930877 647.32340677 C482.63893412 661.51746958 487.35456866 669.97133839 496.875 680.4375 C509.15857087 691.77431344 522.06415298 695.79286763 538.4453125 695.25390625 C555.55295498 694.41225813 572.80640059 688.50466062 585 676 C590.92999706 668.90292905 592.29729243 663.07173819 592.30297852 653.93676758 C592.31569699 652.40886691 592.31569699 652.40886691 592.32867241 650.85009956 C592.35470015 647.448237 592.36678284 644.04646961 592.37890625 640.64453125 C592.39455356 638.22774176 592.4110981 635.81095792 592.42848206 633.3941803 C592.46405261 628.22787073 592.49380202 623.06157132 592.51934814 617.89520264 C592.55632427 610.47580147 592.6103688 603.05659184 592.66900301 595.63733387 C592.85655649 571.8393364 593.01318312 548.04186883 593.02812195 524.24302673 C593.03359619 517.00064323 593.0612155 509.7584001 593.09603214 502.51610279 C593.11730695 497.7642752 593.12561118 493.0132162 593.1020813 488.26138306 C592.92911364 451.40879107 592.92911364 451.40879107 601 434 C601.69334855 432.4073059 602.38425701 430.81354739 603.07275391 429.21875 C619.26867706 391.98688854 648.95965693 361.00791642 686.6875 345.625 C706.92779363 337.98105932 727.86567608 334.81232701 749.40185547 334.81469727 C751.6001362 334.81252457 753.79790215 334.7943448 755.99609375 334.77539062 C800.88354909 334.59311675 843.0716408 351.48332452 875 383 C887.48564039 395.46643172 897.40247277 410.11359228 905 426 C905.30440506 426.62617722 905.60881012 427.25235443 905.92243958 427.89750671 C912.28357322 441.32565895 913.32901799 454.11426489 913.875 468.8125 C913.97633302 470.98125405 914.08048701 473.14987817 914.1875 475.31835938 C914.38329565 479.31566736 914.55998068 483.31297502 914.72216797 487.31176758 C914.90600068 491.50112485 915.18899853 495.67505128 915.5173645 499.85551453 C915.60767 501.01074962 915.6979755 502.16598471 915.79101753 503.35622692 C915.85998175 504.22867204 915.92894596 505.10111715 916 506 C917.10519635 505.99682605 917.10519635 505.99682605 918.2327199 505.99358797 C962.36200835 505.86688775 1006.49130047 505.74153358 1050.62059739 505.61781773 C1055.97492954 505.60280583 1061.32926165 505.58778319 1066.68359375 505.57275391 C1067.74909421 505.56976329 1068.81459467 505.56677268 1069.91238302 505.56369144 C1086.93749816 505.51588055 1103.96261074 505.46720992 1120.98772246 505.41819459 C1138.58921798 505.36754002 1156.19071612 505.31787163 1173.79221678 505.26903296 C1183.62295951 505.24172968 1193.45370067 505.21401463 1203.28443909 505.18519592 C1206.10200329 505.1769971 1208.91956752 505.16881151 1211.73713177 505.16063112 C1213.59935147 505.15519126 1215.46157101 505.14969551 1217.32379037 505.14414364 C1227.32456434 505.11437371 1237.32530606 505.08907333 1247.32611847 505.07712555 C1250.8984837 505.0724429 1254.47084835 505.0674321 1258.04321289 505.06225586 C1258.92616191 505.06105883 1259.80911093 505.0598618 1260.71881598 505.0586285 C1272.25862498 505.04111459 1283.79711824 504.97606936 1295.33640137 504.86387119 C1303.55346989 504.78407512 1311.77053795 504.72299903 1319.9878498 504.67444173 C1325.83615064 504.6383224 1331.68342102 504.57659871 1337.53125834 504.49530244 C1341.13397642 504.45164533 1344.73649924 504.43335832 1348.33945048 504.42209089 C1350.00292768 504.41177788 1351.66637969 504.39108707 1353.32957876 504.35896838 C1362.97888599 504.17866993 1370.15436912 504.72252668 1378 511 C1379.55267578 512.12535156 1379.55267578 512.12535156 1381.13671875 513.2734375 C1391.72605985 521.99788699 1401.45379292 531.74928233 1403.25390625 546.01171875 C1403.94411312 558.41317763 1397.60693764 569.0089305 1389.75 578 C1385.41263345 582.67376296 1380.93103052 586.96206982 1376 591 C1375.30392985 591.61809801 1374.60785971 592.23619603 1373.89069653 592.87302428 C1364.69248541 599.96468587 1354.76653594 598.96897468 1343.70629883 598.86869812 C1341.52674015 598.87461935 1339.34718801 598.88360282 1337.16765308 598.8953746 C1331.19342088 598.91874542 1325.22001459 598.89855572 1319.24582911 598.87109554 C1312.79718694 598.84906918 1306.34864242 598.86744724 1299.8999939 598.88072205 C1288.00250056 598.90048113 1276.10528083 598.88605075 1264.20781609 598.85705353 C1253.21604845 598.83045635 1242.22437438 598.81817282 1231.23257446 598.81989479 C1230.50293587 598.81999411 1229.77329728 598.82009343 1229.02154843 598.82019576 C1226.05956834 598.82062984 1223.09758827 598.82114509 1220.13560821 598.82177297 C1192.36050444 598.82754774 1164.58556682 598.79496287 1136.81051643 598.74338707 C1112.14415409 598.69777129 1087.47792657 598.67948246 1062.81152344 598.6862793 C1061.22766054 598.68670655 1059.64379764 598.68713337 1058.05993474 598.68755975 C1057.27689593 598.68777144 1056.49385713 598.68798314 1055.68708987 598.68820125 C1051.74521508 598.68925642 1047.80334027 598.69026136 1043.86146545 598.69121075 C1043.08376108 598.69140125 1042.30605671 598.69159176 1041.50478555 598.69178804 C1020.88218153 598.69651044 1000.25959272 598.68194951 979.63700008 598.66104633 C978.53630912 598.65993571 978.53630912 598.65993571 977.41338198 598.65880265 C976.68094075 598.65806282 975.94849952 598.657323 975.19386309 598.65656075 C974.09723439 598.65545347 974.09723439 598.65545347 972.97845157 598.65432382 C971.50613955 598.65282876 970.03382754 598.65131695 968.56151555 598.64978829 C958.30506716 598.63925596 948.04863726 598.63564963 937.79218391 598.63667081 C924.5734717 598.63792034 911.35488996 598.62538232 898.13622022 598.59059789 C891.76324629 598.57412763 885.39043205 598.56394528 879.01743698 598.57102966 C873.18216584 598.57730278 867.34723576 598.56506299 861.51202619 598.53810654 C859.4024929 598.53156188 857.29292584 598.53171352 855.18339598 598.53928419 C830.87174603 598.61781603 830.87174603 598.61781603 820.5625 590.61328125 C812.72796759 582.52412654 810.69536859 573.24325564 810.79223633 562.41162109 C810.79343475 561.35712769 810.79463318 560.30263428 810.79586792 559.21618652 C810.79901284 556.93106577 810.80631338 554.64594779 810.8173008 552.36085129 C810.83218486 548.73602665 810.83054494 545.11156996 810.82365417 541.48672485 C810.80484924 531.18195033 810.79828751 520.87746049 810.84545898 510.57275391 C810.8731455 504.26320267 810.86664444 497.9544548 810.83844566 491.64491653 C810.83420182 489.24890631 810.84258172 486.8528373 810.8641758 484.45692062 C811.28431832 466.45461516 811.28431832 466.45461516 803 451 C802.30579453 450.06251671 802.30579453 450.06251671 801.5975647 449.10609436 C792.37990794 437.03805246 778.88788827 429.6279979 764 427 C745.1307312 425.64054259 728.46759747 427.40317761 713.3125 439.5625 C707.47511499 444.92962282 703.64981688 452.2458655 702 460 C701.89343869 462.8980742 701.8399321 465.77313345 701.83314514 468.67156982 C701.82709572 469.55643546 701.82104629 470.4413011 701.81481355 471.35298085 C701.79541664 474.32482952 701.78272673 477.29667149 701.76977539 480.26855469 C701.75684225 482.39766777 701.74334998 484.52677752 701.7293396 486.65588379 C701.70707867 490.06193815 701.68528941 493.46799086 701.66526711 496.8740592 C701.61545008 505.34272605 701.54883532 513.81113885 701.47203064 522.27960205 C701.45532533 524.12535265 701.45532533 524.12535265 701.43828255 526.00839114 C701.39201308 531.08775157 701.34521797 536.16710707 701.29828274 541.24646139 C701.16611655 555.63592586 701.04978579 570.02511872 700.98120117 584.41503906 C700.92658962 595.84961457 700.83690256 607.2833278 700.70731348 618.71730733 C700.64013545 624.75895097 700.58989647 630.7996001 700.58232307 636.84163666 C700.50097876 685.12514143 700.50097876 685.12514143 689 704 C688.01724317 705.74016997 687.03862294 707.4826824 686.06410217 709.22747803 C681.20982195 717.84231491 675.56079286 725.60397705 669 733 C668.32195313 733.79792969 667.64390625 734.59585938 666.9453125 735.41796875 C648.05705269 757.3562783 620.6872703 772.39325286 593 780 C591.80515991 780.34575073 591.80515991 780.34575073 590.58618164 780.69848633 C559.67827268 789.47357625 525.30602907 790.01106472 494 783 C493.19014648 782.82339844 492.38029297 782.64679687 491.54589844 782.46484375 C469.48038499 777.48141537 450.20445776 767.12955777 432 754 C431.72542969 754.59167969 431.45085938 755.18335938 431.16796875 755.79296875 C419.19107199 778.42489741 390.75624984 796.09363987 367.03344727 803.62426758 C361.98256123 805.03761473 357.22457675 805.27219877 352 805.1875 C350.86691406 805.1865332 350.86691406 805.1865332 349.7109375 805.18554688 C346.075635 805.15743887 342.5304378 804.98840411 338.92578125 804.5078125 C323.95906684 802.57181959 312.29400671 804.41215811 299.6875 812.91796875 C283.37475549 825.55560367 275.01501112 845.37316861 268.91162109 864.49194336 C264.02056169 879.74393542 257.54295629 894.07147208 248 907 C247.46117188 907.74894531 246.92234375 908.49789062 246.3671875 909.26953125 C219.3069507 945.54593565 179.93097675 963.403587 136.0859375 970.08984375 C92.05000094 976.16345204 42.7058118 970.90307275 6 944 C5.21367187 943.42507813 4.42734375 942.85015625 3.6171875 942.2578125 C-2.22234032 937.84255976 -7.64709084 932.98813088 -13 928 C-13.74121094 927.32453125 -14.48242188 926.6490625 -15.24609375 925.953125 C-31.40781492 910.62685822 -50.42429079 883.0228707 -51.11911201 860.06424141 C-51.12155649 858.42524303 -51.11846586 856.78623103 -51.1111145 855.14724731 C-51.11111352 854.24307536 -51.11111253 853.33890341 -51.11111152 852.4073323 C-51.11007656 849.37065357 -51.10205683 846.33403154 -51.09423828 843.29736328 C-51.09235938 841.12247251 -51.09101432 838.94758123 -51.09016418 836.77268982 C-51.0878787 832.08388933 -51.08315303 827.39509954 -51.07696915 822.70630264 C-51.06856658 815.2838283 -51.07399828 807.86140573 -51.08297729 800.43893433 C-51.0844483 799.18594673 -51.08591931 797.93295914 -51.08743489 796.64200222 C-51.09050577 794.07939015 -51.09362581 791.51677813 -51.09679389 788.95416617 C-51.11796861 771.67346168 -51.13172978 754.39299035 -51.09960938 737.11230469 C-51.07804692 725.45773324 -51.08127795 713.80345869 -51.11301792 702.14890659 C-51.12883809 695.98462329 -51.13217313 689.82090755 -51.10525894 683.65665054 C-51.08013035 677.85005499 -51.08789037 672.04440742 -51.12013817 666.23785591 C-51.12620013 664.11515715 -51.12048245 661.99238434 -51.10164452 659.86976051 C-50.95288281 641.85245967 -54.72722395 630.67749138 -67 617 C-67.51820313 616.37738281 -68.03640625 615.75476563 -68.5703125 615.11328125 C-80.20316881 602.10669568 -98.45594256 597.41722045 -115.20046997 596.45495605 C-116.25064301 596.39763306 -117.30081604 596.34031006 -118.3828125 596.28125 C-120.62369856 596.15235487 -122.86458395 596.02344828 -125.10546875 595.89453125 C-128.62543016 595.69605015 -132.14546101 595.49885716 -135.66552734 595.30224609 C-139.07147619 595.11088998 -142.47714194 594.91498711 -145.8828125 594.71875 C-146.937034 594.661427 -147.99125549 594.604104 -149.0774231 594.54504395 C-150.05879242 594.48828491 -151.04016174 594.43152588 -152.05126953 594.37304688 C-152.91253448 594.32498901 -153.77379944 594.27693115 -154.66116333 594.22741699 C-156.87046025 594.01259581 -158.85799744 593.56130275 -161 593 C-160.99907821 594.30138287 -160.99815641 595.60276573 -160.99720669 596.94358444 C-160.93957278 679.3046895 -160.92329704 761.66574177 -160.99083489 868.1544289 C-160.99748286 877.80991632 -161.00292771 887.46540364 -161.00752997 897.12089224 C-161.0211662 925.24475693 -161.04916118 953.36849071 -161.13369846 981.49224663 C-161.1664559 992.45843701 -161.19186705 1003.42450413 -161.19528198 1014.39074707 C-161.19822089 1023.57841056 -161.21782639 1032.76583619 -161.26042426 1041.95340532 C-161.2813186 1046.55184947 -161.29469001 1051.14995363 -161.28617096 1055.74844551 C-161.27867814 1059.90435917 -161.29422917 1064.05953078 -161.32806408 1068.21530771 C-161.3362177 1069.70239844 -161.33613551 1071.18956423 -161.32659614 1072.67664671 C-161.26064779 1084.04772548 -163.05623223 1094.9583359 -171.23046875 1103.484375 C-186.70423469 1116.73784339 -206.60391244 1118.0248422 -226 1117 C-238.70602605 1115.47320665 -251.52239945 1110.10467557 -259.6484375 1099.9375 C-267.28239902 1089.21271503 -267.42361029 1078.95445061 -267.34156799 1066.31477356 C-267.34081712 1064.48430842 -267.34139983 1062.65384233 -267.34318739 1060.82337791 C-267.34408089 1056.8185534 -267.33522104 1052.81390454 -267.31907582 1048.80911279 C-267.29234811 1042.17751872 -267.28679985 1035.54599143 -267.28294945 1028.91435051 C-267.27487027 1019.03148255 -267.25591197 1009.14868131 -267.23014641 999.26584435 C-267.18967304 983.64539483 -267.1684832 968.02495679 -267.15119993 952.40446683 C-267.14473594 946.6056242 -267.13789201 940.80678199 -267.13102881 935.00793981 C-267.12927225 933.52336374 -267.12752397 932.03878766 -267.12578385 930.55421158 C-267.11307719 919.75460878 -267.09770712 908.95501223 -267.08062075 898.15541553 C-267.00128102 847.8595672 -266.99117196 797.56389859 -267.00643327 747.26799653 C-267.01156188 730.24099156 -267.01618381 713.21398644 -267.02035522 696.1869812 C-267.02060625 695.17933619 -267.02085727 694.17169118 -267.02111589 693.13351147 C-267.02899353 661.13059671 -267.02529568 629.12769891 -267.01113892 597.12478638 C-267.01068454 596.09177043 -267.01023016 595.05875448 -267.00976202 593.99443502 C-266.99998618 571.93066159 -266.98828886 549.8668894 -266.97522082 527.80311769 C-266.96895811 517.21046077 -266.96303457 506.61780368 -266.95727539 496.02514648 C-266.95669666 494.97365887 -266.95611793 493.92217125 -266.95552166 492.83882038 C-266.93658406 458.16974269 -266.94122738 423.50071224 -266.9567992 388.83163437 C-266.97295148 352.6013414 -266.96629414 316.37112289 -266.93066883 280.14084205 C-266.92566369 275.04146888 -266.92091544 269.9420955 -266.91632271 264.84272194 C-266.91541152 263.84041983 -266.91450033 262.83811772 -266.91356153 261.80544282 C-266.89967944 245.81038386 -266.90956656 229.81542777 -266.92886689 213.82037815 C-266.94759099 197.88404086 -266.94097439 181.94787482 -266.90833985 166.01155844 C-266.88980339 156.58729015 -266.89051375 147.16349298 -266.91942088 137.73924824 C-266.93680925 131.44057037 -266.92854839 125.14225296 -266.90000314 118.8436169 C-266.88450545 115.26664681 -266.87953379 111.69060153 -266.9061371 108.11367568 C-267.019506 91.72425867 -265.7859411 78.02409467 -259 63 C-258.29861924 61.39442827 -257.59729082 59.78883368 -256.89601463 58.18321627 C-253.29332498 50.00090073 -249.12193259 42.34294761 -244 35 C-243.39671875 34.1234375 -242.7934375 33.246875 -242.171875 32.34375 C-219.79628839 0.69048114 -188.80259881 -21.60423212 -151 -31 C-149.94167969 -31.27585938 -148.88335938 -31.55171875 -147.79296875 -31.8359375 C-96.7169875 -44.07478473 -40.13588693 -34.75112755 0 0 Z " fill="#FFFFFF" transform="translate(2479,235)"/>
<path d="M0 0 C2.12995577 0.00534676 4.25969912 0.0000265 6.38964844 -0.00634766 C19.015981 -0.01483291 31.45723007 0.44437022 43.82714844 3.19287109 C45.2923291 3.51831909 45.2923291 3.51831909 46.78710938 3.8503418 C74.17643928 10.26930197 98.90321686 23.63307506 119.34667969 42.86865234 C121.47115898 44.85584703 123.64925163 46.71481205 125.88964844 48.56787109 C130.83048735 52.8873469 134.76673244 57.94860619 138.76464844 63.13037109 C139.19680664 63.68225098 139.62896484 64.23413086 140.07421875 64.80273438 C147.71660545 74.6078008 154.28231146 84.95825737 159.76464844 96.13037109 C160.27181396 97.06016281 160.77897949 97.98995453 161.30151367 98.94792175 C163.6356576 104.48138515 163.23600456 110.34826342 163.25878906 116.25854492 C163.27438061 117.61645328 163.29119527 118.97434804 163.30911255 120.33222771 C163.35468059 124.09375558 163.38120383 127.85521524 163.40435219 131.61693931 C163.42686497 134.89320665 163.46026739 138.16932979 163.49354124 141.44550282 C163.60688746 152.65445531 163.68136505 163.86354746 163.7467804 175.0728693 C163.76481713 178.15923632 163.78342924 181.24559949 163.80212402 184.33196259 C163.99180861 215.9475355 164.11350725 247.56331698 164.22351408 279.17925179 C164.27457107 293.79122752 164.33090487 308.4031824 164.38769531 323.01513672 C164.39030227 323.68624856 164.39290923 324.3573604 164.39559519 325.04880896 C164.41931908 331.15485343 164.44308798 337.26089772 164.46697092 343.36694157 C164.49351635 350.15397834 164.51994324 356.94101552 164.54603577 363.72805405 C164.71944398 408.8134404 164.93744446 453.8984508 165.18680936 498.98347563 C165.69767864 591.38819352 166.16700273 683.79335197 166.59417211 813.08260499 C166.61113606 818.63768851 166.62823274 824.19277161 166.6453819 829.74785456 C166.64969947 831.14734785 166.65400818 832.54684117 166.65830806 833.94633451 C166.72641914 856.09296441 166.81342624 878.23946852 166.91027595 900.38599014 C167.03025728 927.82489602 167.12781233 955.2637559 167.18988148 982.70285839 C167.19822447 986.38983741 167.20681349 990.07681582 167.21554565 993.76379395 C167.21725427 994.48934931 167.21896288 995.21490468 167.22072326 995.96244657 C167.24866344 1007.55395889 167.30038642 1019.1452431 167.36139122 1030.73662339 C167.42179865 1042.31602446 167.45583935 1053.89523109 167.46484107 1065.4747926 C167.47046223 1071.74675228 167.48747936 1078.01813557 167.5351696 1084.28992844 C167.57866511 1090.04613513 167.58942793 1095.80146109 167.57466018 1101.55780458 C167.57501001 1103.6356828 167.58714632 1105.71360125 167.61255467 1107.79132414 C167.78804216 1122.91304855 165.82800519 1133.26529936 155.76464844 1145.13037109 C140.00098883 1158.83285237 121.51253291 1158.94940778 101.76464844 1158.13037109 C90.00774092 1157.20277081 76.87477273 1152.04998878 68.22167969 1143.85693359 C61.70464513 1136.134335 58.51545138 1128.00647314 58.51329142 1117.87854445 C58.51041351 1117.17837188 58.5075356 1116.47819932 58.50457049 1115.7568094 C58.49736555 1113.41233724 58.50437377 1111.06812739 58.51131535 1108.72365761 C58.50903773 1107.01790969 58.50588262 1105.31216275 58.50192967 1103.60641789 C58.49357675 1098.90289561 58.49769947 1094.19945322 58.50378093 1089.49593048 C58.50818452 1084.38495331 58.50098738 1079.27399066 58.49522442 1074.16301668 C58.48670968 1065.19992835 58.48558047 1056.23686257 58.48923683 1047.27377129 C58.49462089 1033.94544594 58.48853992 1020.61714329 58.47994804 1007.28882049 C58.46619576 985.55611158 58.4604716 963.82340816 58.45975758 942.0906958 C58.45898826 919.19086446 58.45302046 896.29104382 58.43952751 873.39121628 C58.43912176 872.70138338 58.43871601 872.01155049 58.43829796 871.30081357 C58.43374687 863.59290545 58.42901134 855.88499745 58.42419302 848.1770895 C58.41528118 833.92045545 58.40702181 819.66382101 58.39887142 805.40718651 C58.39846249 804.69385687 58.39805356 803.98052723 58.39763224 803.24558154 C58.37818976 769.29199526 58.36430592 735.33840736 58.35212687 701.38481777 C58.35131816 699.13176322 58.3505053 696.87870868 58.34969171 694.62565413 C58.33745166 660.67526652 58.32679084 626.72487868 58.31820027 592.77448994 C58.3172452 589.00492736 58.31628154 585.23536479 58.31531766 581.46580222 C58.31512699 580.71997603 58.31493633 579.97414985 58.31473988 579.20572287 C58.31281591 571.68438505 58.31087929 564.16304723 58.30893187 556.64170942 C58.30834976 554.38974301 58.30777106 552.1377766 58.3071926 549.88581018 C58.29845233 515.96625131 58.28731174 482.0466962 58.26721859 448.12714195 C58.26658696 447.05789065 58.26658696 447.05789065 58.26594256 445.96703832 C58.25709634 431.02204839 58.2476794 416.07705891 58.23747329 401.13206985 C58.23269982 394.13376581 58.22808983 387.13546166 58.22358513 380.13715744 C58.22313958 379.44813337 58.22269403 378.75910931 58.22223498 378.04920572 C58.20796795 355.84718026 58.20413762 333.64516766 58.20608516 311.44313813 C58.20808746 288.46341853 58.20003768 265.48372211 58.17995638 242.50400926 C58.16872688 229.25067747 58.16597663 215.99740534 58.17515273 202.74407165 C58.18046701 193.89852667 58.17500138 185.05303138 58.16067599 176.20749649 C58.15282375 171.16279999 58.14977966 166.11822392 58.15989525 161.07352872 C58.16900743 156.48557749 58.16437862 151.89785468 58.14872511 147.30992298 C58.14551532 145.65923938 58.14734228 144.00853645 58.15478844 142.35786653 C58.21022712 129.11152129 56.56385096 119.49349438 47.76464844 109.13037109 C38.77170348 100.0847331 26.409908 96.03751914 13.89501953 95.93969727 C-5.08708384 95.95933497 -23.53458619 97.43960694 -38.20019531 110.93896484 C-46.42256237 119.57853446 -47.82857974 128.73738795 -47.71802044 140.31194782 C-47.72162782 141.6155541 -47.7252352 142.91916038 -47.7289519 144.26226988 C-47.73840463 147.87204123 -47.72302686 151.4813395 -47.70354329 155.09105472 C-47.68680556 159.02161276 -47.69350586 162.95214273 -47.69725972 166.88272494 C-47.70066683 173.7690414 -47.68936737 180.65521071 -47.66842461 187.54149437 C-47.63740686 197.78221256 -47.62954111 208.02285666 -47.62679946 218.26361688 C-47.62171337 235.49626459 -47.59931683 252.72884715 -47.56838036 269.96146584 C-47.52462499 294.59184291 -47.51564254 319.22216725 -47.51401168 343.85257849 C-47.51321357 353.73999721 -47.51133381 363.62741583 -47.50948811 373.5148344 C-47.5092888 374.61334247 -47.5090895 375.71185054 -47.50888416 376.84364672 C-47.50395678 402.99025206 -47.48876723 429.13684855 -47.4699707 455.28344727 C-47.46915717 456.42740649 -47.46834364 457.57136572 -47.46750545 458.74999038 C-47.44842362 485.43070921 -47.42336512 512.11141316 -47.38696289 538.79211426 C-47.385401 539.9390904 -47.3838391 541.08606655 -47.38222987 542.26779955 C-47.37433686 548.05123625 -47.36638493 553.83467288 -47.35841677 559.61810949 C-47.3568428 560.76110778 -47.35526883 561.90410608 -47.35364717 563.08174068 C-47.35046788 565.38876618 -47.34728224 567.69579167 -47.34409023 570.00281715 C-47.29150213 608.14493816 -47.26939336 646.28698045 -47.28122079 684.42913759 C-47.28285274 689.81921532 -47.28407946 695.20929307 -47.28502846 700.59937096 C-47.2852188 701.66013279 -47.28540914 702.72089462 -47.28560525 703.81380075 C-47.28765671 720.86419482 -47.25674084 737.91437696 -47.21266542 754.96470773 C-47.16887653 772.11204521 -47.15712886 789.25916071 -47.17806175 806.40654359 C-47.18945557 816.58491003 -47.17579635 826.76251796 -47.12578842 836.94077173 C-47.09480277 843.75180755 -47.09685735 850.56233248 -47.12498146 857.37337894 C-47.14003983 861.24656259 -47.14143227 865.11830542 -47.10216322 868.9913517 C-46.93276394 886.7794313 -48.3996303 901.35165207 -57.23535156 917.13037109 C-57.6671176 917.92728941 -58.09888364 918.72420772 -58.5437335 919.54527507 C-63.91233061 929.44484603 -70.06751323 938.45613398 -77.23535156 947.13037109 C-77.70199219 947.70384277 -78.16863281 948.27731445 -78.64941406 948.86816406 C-105.83649508 982.17052099 -143.43960137 1002.00086509 -186.20019531 1006.71630859 C-233.26695353 1011.08068903 -281.10440155 998.75602646 -318.23535156 969.13037109 C-340.22264112 950.40251783 -357.84742807 927.91930373 -368.92285156 901.20068359 C-369.93448482 898.30715575 -369.93448482 898.30715575 -371.23535156 897.13037109 C-371.33693036 895.35997734 -371.36750986 893.58549164 -371.37122345 891.81219006 C-371.37608151 890.65002207 -371.38093957 889.48785407 -371.38594484 888.29046887 C-371.38624052 886.99604282 -371.38653619 885.70161678 -371.38684082 884.3679657 C-371.39068595 882.98971839 -371.39497015 881.61147225 -371.39965773 880.23322755 C-371.41135262 876.41895561 -371.41678741 872.60469561 -371.42128849 868.79040933 C-371.42725171 864.66795982 -371.43900176 860.54552646 -371.45007324 856.42308807 C-371.46861214 849.22609072 -371.48350385 842.02909306 -371.49598694 834.83208275 C-371.51434963 824.25625198 -371.53805858 813.68043845 -371.56317943 803.10462181 C-371.59462244 789.84812618 -371.62491525 776.5916287 -371.65229034 763.33512402 C-371.70975856 735.54995779 -371.77898734 707.76484687 -371.8578434 679.97973323 C-372.27604462 532.54598116 -372.27604462 532.54598116 -372.21444994 466.36339641 C-372.19826682 448.78038519 -372.21061947 431.19740156 -372.22936249 413.61439419 C-372.24132474 400.89521682 -372.22520746 388.17668298 -372.17218828 375.45760769 C-372.13901065 366.98520507 -372.13692454 358.51318393 -372.16099501 350.04075104 C-372.17573598 344.40799871 -372.15570482 338.77709524 -372.10487604 333.14457303 C-372.08419909 329.79658101 -372.10098505 326.44959278 -372.1292429 323.10168898 C-372.13474861 321.59243471 -372.12528493 320.08302805 -372.09859371 318.57399976 C-371.89053657 306.07928777 -376.22453586 299.52334726 -384.65489197 290.55699921 C-396.30491079 278.72394433 -411.32909211 274.06202547 -427.48535156 273.75537109 C-443.06197847 273.77665687 -457.68475152 278.78235559 -469.02325505 289.79769051 C-477.80099484 299.05391557 -479.25439956 307.37644469 -479.12614441 319.71414185 C-479.13460605 321.3820816 -479.14614171 323.05000807 -479.16046506 324.71790779 C-479.19088212 329.27819894 -479.17819183 333.83748894 -479.1582607 338.39779997 C-479.14442301 343.32512315 -479.17107538 348.25224855 -479.19288635 353.17951965 C-479.22532305 361.71246754 -479.23278471 370.24514071 -479.22359276 378.77814102 C-479.21067033 391.13379207 -479.24012202 403.48906723 -479.28050987 415.84464596 C-479.34534378 435.91676332 -479.38203453 455.98882284 -479.39819336 476.06103516 C-479.39916684 477.26155434 -479.40014031 478.46207353 -479.40114329 479.69897209 C-479.40310391 482.12854064 -479.40506303 484.55810919 -479.40702068 486.98767775 C-479.40848215 488.79428538 -479.40848215 488.79428538 -479.40997314 490.63739014 C-479.41094357 491.84276011 -479.411914 493.04813009 -479.41291384 494.29002643 C-479.4241271 507.66585287 -479.44261084 521.04166616 -479.46362305 534.41748047 C-479.46549636 535.61471187 -479.46736967 536.81194326 -479.46929976 538.0454544 C-479.50119285 558.03697216 -479.54900529 578.02843133 -479.60562402 598.01989353 C-479.63954523 610.33741048 -479.65775421 622.65476858 -479.65535102 634.97233312 C-479.65441129 643.41968301 -479.66709233 651.86694039 -479.69027802 660.31425829 C-479.70307571 665.18120171 -479.70936313 670.04792505 -479.6979866 674.91487694 C-479.68761884 679.38116868 -479.6958751 683.84704622 -479.71813134 688.31329094 C-479.72292283 689.91822808 -479.72114528 691.52320321 -479.71166065 693.12811948 C-479.63195342 707.71290355 -482.01577375 721.48382881 -488.04785156 734.88037109 C-488.39332031 735.67056641 -488.73878906 736.46076172 -489.09472656 737.27490234 C-494.02490481 748.38134785 -499.75256447 758.51765209 -507.23535156 768.13037109 C-507.92371094 769.03529297 -508.61207031 769.94021484 -509.32128906 770.87255859 C-518.39171718 782.43162403 -528.92704606 791.22111725 -541.23535156 799.13037109 C-542.15445313 799.73494141 -543.07355469 800.33951172 -544.02050781 800.96240234 C-587.08173045 827.79239057 -646.61801396 829.8332189 -694.91162109 818.69677734 C-730.32180474 810.06559159 -762.7729872 790.36712439 -782.52050781 759.09521484 C-787.44913972 750.98871878 -791.68159444 742.64033377 -795.17285156 733.81787109 C-795.578302 732.79850464 -795.578302 732.79850464 -795.99194336 731.75854492 C-801.00747563 718.39279485 -801.66834218 705.95739993 -801.62011719 691.85888672 C-801.62422954 689.83867589 -801.62969431 687.81846744 -801.63639832 685.79826355 C-801.64806485 681.47136182 -801.65062867 677.14458743 -801.64604187 672.81767273 C-801.63919533 665.96598888 -801.65516287 659.11447067 -801.67443848 652.26281738 C-801.71539651 636.48359201 -801.72682418 620.70437175 -801.73796844 604.92510223 C-801.74849396 590.45490122 -801.76535557 575.98478053 -801.80606413 561.51462889 C-801.82434849 554.71329551 -801.8283387 547.9121537 -801.82112885 541.1108017 C-801.81960011 536.86984622 -801.83043378 532.62898544 -801.84450722 528.3880558 C-801.84848767 526.43263927 -801.8474231 524.47720441 -801.84073448 522.52179527 C-801.78872432 506.04185138 -802.73235866 489.49649861 -814.51660156 476.72021484 C-828.48911971 463.79563555 -845.37076067 463.38107796 -863.42089844 463.95117188 C-876.25341429 464.76823178 -887.42649485 471.3917292 -896.13378906 480.59130859 C-907.66891093 494.52779412 -909.82396323 508.95706781 -909.6906414 526.36129951 C-909.66847325 529.38619126 -909.67256167 532.41009857 -909.68312073 535.43504333 C-909.70462409 542.94107455 -909.68747867 550.44687702 -909.66162109 557.95288086 C-909.64012332 564.31717654 -909.63839536 570.68083269 -909.66453743 577.04511833 C-909.66884877 580.0054863 -909.64437523 582.96470333 -909.6190033 585.92494202 C-909.60606213 600.87655791 -912.39219335 612.13476074 -923.23535156 623.13037109 C-933.63690126 632.26900076 -945.97506533 634.98473757 -959.4888916 635.65742493 C-960.73313605 635.72108429 -960.73313605 635.72108429 -962.00251675 635.7860297 C-996.24055508 637.47104776 -1030.47106743 637.41160825 -1064.73964319 637.36920927 C-1073.65894386 637.35848736 -1082.57823632 637.35888707 -1091.4975422 637.35936586 C-1107.54947736 637.35986294 -1123.60139243 637.35082221 -1139.65332031 637.33618164 C-1154.9124387 637.32227292 -1170.17153925 637.31506105 -1185.43066406 637.31567383 C-1189.18702698 637.31578365 -1192.94338989 637.31588589 -1196.69975281 637.3159771 C-1197.6269427 637.31599966 -1198.55413259 637.31602221 -1199.50941914 637.31604546 C-1267.01714185 637.31678105 -1334.52536339 637.26243822 -1402.03155708 636.7706511 C-1405.85022487 636.74394175 -1409.66889964 636.72056483 -1413.4875946 636.69811058 C-1419.3345312 636.66307297 -1425.18130616 636.61821634 -1431.02810478 636.56498694 C-1433.12286896 636.54722506 -1435.21766206 636.53254023 -1437.31247139 636.52130151 C-1458.32822956 636.40296557 -1477.25463978 633.96112636 -1493.41894531 619.10302734 C-1501.77106802 610.03244247 -1504.81443142 598.90384713 -1504.67285156 586.81787109 C-1504.6614917 585.44646973 -1504.6614917 585.44646973 -1504.64990234 584.04736328 C-1504.35165695 571.72133822 -1500.94370211 561.27245121 -1492.42285156 552.20068359 C-1479.69718088 540.24471073 -1464.08437934 538.66086797 -1447.41894531 538.91552734 C-1445.71212368 538.92987872 -1444.00528929 538.94277298 -1442.29844666 538.95436096 C-1438.58088774 538.98228215 -1434.86357965 539.01957381 -1431.1461792 539.06378174 C-1425.1188747 539.13448716 -1419.09153688 539.17905028 -1413.06396484 539.21972656 C-1403.93986206 539.28326901 -1394.81587373 539.35573954 -1385.69189453 539.43505859 C-1369.12700539 539.57861644 -1352.56208051 539.71637185 -1335.99707031 539.84521484 C-1334.85764024 539.85408667 -1334.85764024 539.85408667 -1333.69519138 539.86313772 C-1306.21947835 540.07625607 -1278.74359317 540.23271594 -1251.2673986 540.36874127 C-1248.12225353 540.38431512 -1244.97710898 540.39998781 -1241.83196449 540.41567802 C-1223.05540396 540.50919128 -1204.27883732 540.60137365 -1185.50222778 540.68453979 C-1173.73356816 540.73669689 -1161.96492153 540.79114078 -1150.19628906 540.84912109 C-1149.24743765 540.85377986 -1148.29858623 540.85843863 -1147.32098174 540.86323857 C-1103.9567634 541.07829803 -1060.59632226 541.5694267 -1017.23535156 542.13037109 C-1017.23836242 540.96614813 -1017.24137327 539.80192516 -1017.24447536 538.60242271 C-1017.24691061 537.05813991 -1017.24927215 535.51385699 -1017.25157166 533.96957397 C-1017.25483341 532.82155509 -1017.25483341 532.82155509 -1017.25816107 531.65034389 C-1017.26434119 526.11196629 -1017.07254457 520.62757351 -1016.61425781 515.10693359 C-1016.55004135 514.26923431 -1016.48582489 513.43153503 -1016.41966248 512.56845093 C-1016.21846725 509.96357267 -1016.00831942 507.35951451 -1015.79785156 504.75537109 C-1015.66120149 502.99890589 -1015.52513179 501.24239543 -1015.38964844 499.48583984 C-1015.07252872 495.39462656 -1014.73956261 491.3049024 -1014.40164185 487.21536255 C-1014.2558347 485.38719403 -1014.12870661 483.55755559 -1014.00463867 481.7277832 C-1012.58796255 462.24723203 -1000.97525384 443.25350395 -989.23535156 428.13037109 C-988.45804688 427.12876953 -987.68074219 426.12716797 -986.87988281 425.09521484 C-967.17245892 400.4354951 -938.85237881 382.31695285 -908.21777344 374.63623047 C-906.29204561 374.14483785 -904.3803926 373.59928326 -902.46972656 373.05224609 C-857.91108354 360.76652971 -804.89304055 364.39085359 -764.14208984 387.01660156 C-753.78649546 393.06554159 -744.7505816 400.73696123 -736.23535156 409.13037109 C-735.46835937 409.88447266 -734.70136719 410.63857422 -733.91113281 411.41552734 C-709.57151027 436.89129025 -693.91234456 476.0927358 -693.94824219 511.25463867 C-693.94134684 512.30140085 -693.93445148 513.34816303 -693.92734718 514.42664528 C-693.90660376 517.87608169 -693.89920918 521.32541414 -693.89160156 524.77490234 C-693.87883507 527.2350365 -693.86504848 529.69516555 -693.85031128 532.1552887 C-693.82012347 537.37758069 -693.79482288 542.59987164 -693.77313232 547.82220459 C-693.73843293 555.96948696 -693.68263149 564.11655638 -693.62060547 572.26367188 C-693.61290048 573.27685801 -693.61290048 573.27685801 -693.60503983 574.31051254 C-693.57376323 578.4011297 -693.54171345 582.49174045 -693.5093112 586.58234882 C-693.49313952 588.62957208 -693.47716033 590.67679676 -693.46123123 592.72402191 C-693.20716652 627.10703386 -693.20716652 627.10703386 -692.69799805 661.48690796 C-692.63627484 664.81147187 -692.59107036 668.13560561 -692.56079102 671.46060181 C-692.52535099 675.30406478 -692.45789983 679.14557269 -692.36441422 682.98805046 C-692.32321537 684.99736083 -692.31472067 687.00726214 -692.30783081 689.01698303 C-692.04654917 697.63438751 -689.92744102 702.67500137 -684.23535156 709.13037109 C-683.65006683 709.80466156 -683.0647821 710.47895203 -682.46176147 711.17367554 C-673.94669172 720.61713392 -659.56199794 727.49272533 -646.8828125 728.27563477 C-644.25019847 728.30040542 -641.61809054 728.31602485 -638.98535156 728.31787109 C-638.08171875 728.33011719 -637.17808594 728.34236328 -636.24707031 728.35498047 C-623.25685097 728.38301691 -611.60772895 724.92531129 -601.56738281 716.48193359 C-593.44790455 708.294453 -589.95136081 699.74244329 -589.88768005 688.47311401 C-589.87442611 687.49366573 -589.86117217 686.51421746 -589.8475166 685.50508893 C-589.80538394 682.21729938 -589.77713123 678.92953669 -589.7487793 675.64160156 C-589.7213881 673.28341196 -589.6931379 670.9252322 -589.66409302 668.56706238 C-589.59533495 662.80954042 -589.53549109 657.05197458 -589.47942214 651.29431622 C-589.41305665 644.53361665 -589.33531511 637.77306171 -589.25686849 631.01249327 C-589.11633969 618.87835975 -588.98424633 606.74414977 -588.85766602 594.60986328 C-588.73622233 582.97017408 -588.61187985 571.33052367 -588.48266602 559.69091797 C-588.47479588 558.98182847 -588.46692574 558.27273898 -588.45881712 557.54216193 C-588.37191725 549.71918857 -588.28432181 541.89622305 -588.19655704 534.07325935 C-588.17289414 531.96291123 -588.14923659 529.85256304 -588.12558549 527.74221478 C-588.10992813 526.3454413 -588.09426031 524.94866793 -588.07858194 523.55189468 C-587.98106146 514.85880834 -587.88637992 506.16569888 -587.79499406 497.47254539 C-587.56912958 476.02481025 -587.34108232 454.57745724 -586.97271729 433.13162231 C-586.96134436 432.46870433 -586.94997144 431.80578635 -586.93825389 431.12277995 C-586.81815732 424.14970492 -586.69316086 417.17673738 -586.56234646 410.20385551 C-586.30576625 396.27030406 -586.16943387 382.3420118 -586.16670573 368.40607262 C-586.16388115 363.715193 -586.14842766 359.02435121 -586.13378906 354.33349609 C-586.1166282 348.72163552 -586.10767053 343.11037855 -586.13574219 337.49853516 C-586.31629645 297.17564232 -586.31629645 297.17564232 -578.23535156 280.13037109 C-577.48995117 278.33744629 -577.48995117 278.33744629 -576.72949219 276.50830078 C-575.42764613 273.43045681 -574.02738812 270.43869655 -572.54785156 267.44287109 C-571.78637817 265.88125244 -571.78637817 265.88125244 -571.00952148 264.28808594 C-566.20629328 254.66980439 -560.61426647 245.77314798 -554.23535156 237.13037109 C-553.16800781 235.67050781 -553.16800781 235.67050781 -552.07910156 234.18115234 C-540.98257951 219.90504994 -527.73999763 207.43158426 -512.23535156 198.13037109 C-511.6251416 197.76121582 -511.01493164 197.39206055 -510.38623047 197.01171875 C-473.77075704 175.25868715 -428.13644258 173.03376514 -387.23535156 182.13037109 C-386.41035156 182.31229004 -385.58535156 182.49420898 -384.73535156 182.68164062 C-353.69291583 189.82318783 -327.04294103 205.1802098 -304.23535156 227.13037109 C-303.5328125 227.76974609 -302.83027344 228.40912109 -302.10644531 229.06787109 C-288.20873008 242.09522436 -268.3261284 268.873769 -267.0838623 288.52700233 C-267.07133423 289.48526106 -267.05880615 290.44351978 -267.04589844 291.43081665 C-267.02914063 292.53775501 -267.01238281 293.64469337 -266.99511719 294.78517532 C-266.98158203 296.00720028 -266.96804688 297.22922523 -266.95410156 298.48828125 C-266.92703125 300.43162416 -266.92703125 300.43162416 -266.89941406 302.41422653 C-266.84941154 306.02473506 -266.80564976 309.63529644 -266.76303101 313.24589872 C-266.72563254 316.35151276 -266.68473752 319.45707699 -266.64386749 322.56264699 C-266.49680167 333.75176207 -266.36487513 344.94104129 -266.23535156 356.13037109 C-266.21452082 357.92046614 -266.19368749 359.71056115 -266.17285156 361.50065613 C-265.86020443 388.43183453 -265.57585001 415.36329483 -265.29926682 442.29486465 C-265.23447013 448.59976999 -265.16891458 454.90466732 -265.103302 461.20956421 C-264.51605487 517.69801933 -263.99803824 574.18641199 -263.58752251 630.67641735 C-263.34339404 664.3921869 -263.34339404 664.3921869 -262.98925781 698.10693359 C-262.97897427 698.95651453 -262.96869072 699.80609547 -262.95809555 700.68142128 C-262.85873061 708.83284762 -262.75314535 716.98413452 -262.63008308 725.1352396 C-262.5699096 729.14529723 -262.51299384 733.15539539 -262.45800781 737.16552734 C-262.44685062 737.97898809 -262.43569344 738.79244884 -262.42419815 739.63055992 C-262.22771825 754.54159296 -262.2192908 769.45137104 -262.22996867 784.36342961 C-262.23269755 789.23019607 -262.22783361 794.09691211 -262.2180481 798.96366882 C-262.21598274 799.99779295 -262.21598274 799.99779295 -262.21387565 801.05280846 C-262.20663544 804.54084854 -262.19841196 808.0288848 -262.18952751 811.51692104 C-262.17182793 819.08387244 -262.17966019 826.64999474 -262.21966594 834.21686274 C-262.24808322 840.03048865 -262.23470663 845.84347353 -262.20710945 851.65707588 C-262.20255708 854.06225615 -262.21181516 856.46750856 -262.23596001 858.87257195 C-262.36354212 872.35310843 -262.41792678 882.61961889 -253.23535156 893.13037109 C-252.47371201 894.00950165 -251.71207245 894.8886322 -250.92735291 895.79440308 C-240.84334514 906.88567267 -227.06652085 912.38265724 -212.27441406 913.40380859 C-197.00687901 913.8986539 -182.04494772 910.87840775 -170.28613281 900.39208984 C-163.07529001 892.83712873 -158.13826106 883.00980124 -158.0838623 872.52937317 C-158.07552116 871.37821392 -158.06718002 870.22705467 -158.05858612 869.04101181 C-158.05439919 867.77217274 -158.05021225 866.50333366 -158.04589844 865.19604492 C-158.03791108 863.83022442 -158.02949844 862.46440636 -158.02069855 861.09859085 C-157.99761946 857.31715017 -157.98074123 853.53570281 -157.96485901 849.75422597 C-157.94649723 845.62897351 -157.92256847 841.50375261 -157.89941406 837.37852478 C-157.85418575 829.1516242 -157.81448562 820.92470499 -157.77649593 812.69776815 C-157.74473745 805.85249659 -157.7106322 799.00724001 -157.67504883 792.1619873 C-157.26762306 713.71053176 -156.96547268 635.25856119 -156.66619395 556.80663062 C-156.46400213 503.80495583 -156.25733821 450.80343386 -155.95019531 397.80224609 C-155.94433025 396.78664447 -155.93846519 395.77104284 -155.9324224 394.7246654 C-155.83129547 377.2156454 -155.72838835 359.70663568 -155.62147051 342.19765002 C-155.39694432 305.42414009 -155.19222927 268.65201474 -155.24028563 231.87769651 C-155.24313909 229.66148239 -155.24567069 227.44526811 -155.24811745 225.2290535 C-155.26326666 211.82113144 -155.28556471 198.41332377 -155.34525299 185.00551128 C-155.36431296 180.37909332 -155.37573278 175.75267596 -155.38560104 171.12623024 C-155.39204512 169.04283961 -155.4021166 166.95945598 -155.41640091 164.87610435 C-155.52169525 149.48645694 -155.05386624 134.10525412 -151.42285156 119.06787109 C-151.25108398 118.33439453 -151.07931641 117.60091797 -150.90234375 116.84521484 C-150.36548682 114.60174831 -149.80566613 112.36554836 -149.23535156 110.13037109 C-149.05633301 109.42025879 -148.87731445 108.71014648 -148.69287109 107.97851562 C-142.99232523 85.84249764 -132.74367648 65.76391694 -118.23535156 48.13037109 C-117.19121094 46.83679688 -117.19121094 46.83679688 -116.12597656 45.51708984 C-92.92157409 18.16904407 -55.9127952 3.83652649 -20.92285156 0.59521484 C-13.94785694 0.03064377 -6.99198638 -0.02079996 0 0 Z " fill="#FFFFFF" transform="translate(1507.2353515625,207.86962890625)"/>
<path d="M0 0 C0.72622559 0.23058105 1.45245117 0.46116211 2.20068359 0.69873047 C19.72681186 6.41620941 35.67539179 15.46411453 50 27 C50.60183105 27.48227051 51.20366211 27.96454102 51.82373047 28.46142578 C67.91152201 41.4820122 80.60717659 56.69672416 91.25 74.4375 C91.81376343 75.36502075 91.81376343 75.36502075 92.38891602 76.3112793 C93.66711473 78.50623592 94.82667231 80.74689791 96 83 C96.57498484 84.03343536 97.14996967 85.06687073 97.74237829 86.13162231 C103.98442933 98.11702737 103.9901756 109.40313549 103.89561462 122.68359375 C103.9044087 125.06189729 103.91624634 127.44019118 103.93084341 129.81846619 C103.9586331 135.63968123 103.95418579 141.46023234 103.93567797 147.28146952 C103.91530818 154.26226641 103.93579085 161.24279979 103.95722881 168.22357225 C103.99785937 181.89876019 103.99851067 195.5737282 103.98171796 209.24895334 C103.96707479 221.21661355 103.96508773 233.1841907 103.97564888 245.15185547 C103.9763287 245.94696938 103.97700852 246.7420833 103.97770894 247.56129158 C103.98047026 250.78925239 103.98327027 254.01721316 103.986141 257.24517387 C104.01274134 287.50050123 103.99777687 317.75568541 103.96469859 348.01099944 C103.93561383 374.86680665 103.94567388 401.72233771 103.98803711 428.578125 C104.03556419 458.77956669 104.05685464 488.98084901 104.03740031 519.18232727 C104.03540149 522.40426632 104.03347574 525.62620541 104.0315876 528.84814453 C104.03110148 529.64141643 104.03061536 530.43468834 104.03011451 531.25199878 C104.02327268 543.20955472 104.03652965 555.16697977 104.05979729 567.12451172 C104.08618132 580.7264579 104.08406776 594.32806746 104.0446034 607.92998886 C104.02521322 614.86678984 104.01824232 621.80302576 104.04785156 628.73980713 C104.07366557 635.09601129 104.06223008 641.45104397 104.02170212 647.80716133 C104.01349315 650.10035009 104.01862535 652.39363585 104.03881692 654.68675041 C104.23702397 679.00059157 94.87925386 694.61097001 78 712 C65.33768904 724.7059741 50.34232629 732.95003239 34 740 C33.19836426 740.34756348 32.39672852 740.69512695 31.57080078 741.05322266 C25.65087983 743.52827691 19.75386285 745.22088308 13.5 746.625 C12.62730469 746.82867188 11.75460937 747.03234375 10.85546875 747.2421875 C8.24069306 747.84649122 5.62201409 748.42797809 3 749 C2.17048828 749.18401367 1.34097656 749.36802734 0.48632812 749.55761719 C-5.49360537 750.82829434 -11.41010727 751.51666648 -17.5 752 C-19.43889279 752.16822867 -21.3776941 752.33751476 -23.31640625 752.5078125 C-24.27305176 752.59063477 -25.22969727 752.67345703 -26.21533203 752.75878906 C-27.13427246 752.83838867 -28.05321289 752.91798828 -29 753 C-29.83257324 753.07186523 -30.66514648 753.14373047 -31.52294922 753.21777344 C-52.41660471 755.07860793 -74.98521579 760.17803337 -89.36328125 776.71875 C-94.3191453 783.01294067 -98.34789754 789.42118166 -101 797 C-101.24339615 797.68253342 -101.4867923 798.36506683 -101.73756409 799.06828308 C-104.55950237 807.98825695 -104.54131522 816.8565203 -104.66015625 826.109375 C-104.69403898 827.94220687 -104.72915108 829.77501636 -104.76538086 831.60780334 C-104.86065355 836.60595092 -104.93857323 841.60423776 -105.01350784 846.60272598 C-105.09637796 851.92633235 -105.19553914 857.24963728 -105.29272461 862.57299805 C-105.48039185 872.99792855 -105.65290306 883.42305688 -105.81994534 893.84833622 C-105.96260982 902.73767555 -106.110535 911.62691486 -106.26171875 920.51611328 C-106.29488111 922.46638522 -106.29488111 922.46638522 -106.32871342 924.45605659 C-106.37364285 927.09595279 -106.41859818 929.73584855 -106.46357918 932.37574387 C-106.74955326 949.16088028 -107.03395431 965.94602764 -107.30297852 982.73144531 C-107.63457901 1003.33297585 -107.97606434 1023.93296848 -108.47265625 1044.53125 C-108.95515577 1064.60653194 -109.30704128 1084.68365317 -109.6484375 1104.76171875 C-109.66273182 1105.60128357 -109.67702614 1106.44084838 -109.69175363 1107.30585456 C-109.84189942 1116.12653318 -109.99117453 1124.94722641 -110.13992542 1133.76792866 C-110.47932788 1153.89354159 -110.82346447 1174.01907224 -111.171875 1194.14453125 C-111.1887683 1195.12070908 -111.20566159 1196.0968869 -111.22306681 1197.10264587 C-111.7241378 1226.03135619 -112.25681499 1254.95931031 -112.828125 1283.88671875 C-112.84498808 1284.74138505 -112.86185117 1285.59605134 -112.87922525 1286.47661662 C-113.20109213 1302.78401612 -113.52668968 1319.09133839 -113.86006653 1335.39850682 C-114.02549927 1343.49220164 -114.1893793 1351.5859269 -114.3515625 1359.6796875 C-114.36566335 1360.38240697 -114.3797642 1361.08512644 -114.39429235 1361.80914044 C-115.0830436 1396.20379775 -115.55583357 1430.60143002 -116 1465 C-117.93038935 1465.01702072 -119.86082185 1465.02919691 -121.79125977 1465.03930664 C-122.86626236 1465.04660294 -123.94126495 1465.05389923 -125.04884338 1465.06141663 C-138.45499941 1464.78242063 -152.16625209 1455.48032267 -162 1447 C-162.88429688 1446.24847656 -163.76859375 1445.49695312 -164.6796875 1444.72265625 C-187.7478991 1424.49803306 -203.28025659 1395.94634165 -215 1368 C-215.51170315 1366.80813862 -216.02340629 1365.61627723 -216.5506156 1364.38829884 C-218.23596442 1359.84573625 -218.42092208 1355.75262935 -218.38180083 1350.94566584 C-218.38904299 1349.6208427 -218.38904299 1349.6208427 -218.39643145 1348.26925546 C-218.40896581 1345.30683003 -218.40016815 1342.34485707 -218.39148998 1339.3824234 C-218.39613657 1337.22909902 -218.4020933 1335.07577713 -218.40924242 1332.9224596 C-218.42512509 1326.98083038 -218.42225444 1321.03933342 -218.41640947 1315.09769125 C-218.41331898 1308.64274741 -218.4274944 1302.18783804 -218.43946868 1295.73290777 C-218.45856762 1284.41148967 -218.46542908 1273.09010228 -218.46528244 1261.76866913 C-218.46516305 1249.61977164 -218.47148907 1237.47090335 -218.48567009 1225.32201385 C-218.48656001 1224.55486655 -218.48744993 1223.78771924 -218.48836682 1222.99732504 C-218.49200844 1219.87287175 -218.49568946 1216.7484185 -218.49942222 1213.62396531 C-218.54039767 1179.26776173 -218.55654294 1144.9115689 -218.56615657 1110.5553443 C-218.56640044 1109.68618492 -218.56664432 1108.81702553 -218.56689559 1107.92152799 C-218.56738837 1106.16291452 -218.56787817 1104.40430104 -218.56836501 1102.64568757 C-218.57376687 1083.34784434 -218.58389368 1064.05000451 -218.59467312 1044.75216365 C-218.59909168 1036.80694045 -218.60336376 1028.86171717 -218.60762817 1020.91649389 C-218.6080994 1020.03862124 -218.60857064 1019.1607486 -218.60905616 1018.25627375 C-218.63598005 967.94456575 -218.65556787 917.63285921 -218.66089153 867.3211441 C-218.66109656 865.43804077 -218.66130232 863.55493743 -218.66150881 861.67183409 C-218.66233424 854.11649416 -218.66313615 846.56115423 -218.66393781 839.0058143 C-218.66444093 834.26768823 -218.66495098 829.52956217 -218.66546485 824.79143611 C-218.6656693 822.89380103 -218.66587111 820.99616596 -218.6660703 819.09853089 C-218.67237889 759.09820128 -218.70851436 699.09795563 -218.76831055 639.09765625 C-218.81289624 594.35490891 -218.8548771 549.61217791 -218.86607838 504.86940765 C-218.8663053 503.96872477 -218.86653222 503.06804188 -218.86676602 502.14006558 C-218.87165744 482.36763958 -218.87423068 462.5952139 -218.87465282 442.82278732 C-218.87482868 435.74775389 -218.87519462 428.67272047 -218.87566059 421.59768706 C-218.8757758 419.83759209 -218.87588223 418.07749713 -218.87597987 416.31740216 C-218.87764302 388.27368425 -218.9032749 360.23005217 -218.94104866 332.18636162 C-218.97893544 303.93873709 -218.99120224 275.69122106 -218.96844825 247.44357684 C-218.96530527 243.53878294 -218.96244065 239.63398888 -218.95974159 235.72919464 C-218.95920157 234.96376018 -218.95866155 234.19832571 -218.95810516 233.40969626 C-218.95028979 221.29768705 -218.96931165 209.18587533 -218.99955952 197.07390764 C-219.02875416 185.1591986 -219.02865939 173.24479377 -218.99962701 161.33008217 C-218.98492499 154.95840032 -218.98287675 148.58740764 -219.0161018 142.21578008 C-219.04609287 136.41540478 -219.0390382 130.61628161 -219.00284379 124.81595248 C-218.99626878 122.73434959 -219.00300228 120.65264943 -219.02493795 118.57115173 C-219.15855057 104.99217002 -217.16341388 95.59388731 -210 84 C-209.12576667 82.46588941 -208.25277364 80.93106853 -207.3828125 79.39453125 C-206.63971262 78.19458272 -205.88736857 77.00029968 -205.125 75.8125 C-204.70919678 75.15725342 -204.29339355 74.50200684 -203.86499023 73.8269043 C-199.62357581 67.24748891 -194.94831396 61.06010693 -190 55 C-189.54979492 54.44683105 -189.09958984 53.89366211 -188.63574219 53.32373047 C-162.81048599 21.77058809 -125.74882972 -3.9984811 -84.29272461 -8.53344727 C-55.68193629 -10.97038906 -27.3936166 -8.74124784 0 0 Z " fill="#FFFFFF" transform="translate(2001,32)"/>
<path d="M0 0 C5.02441179 3.93214836 8.98937671 8.67937756 12.515625 13.96875 C12.71053809 17.00732993 12.7852621 19.95409027 12.77010059 22.99321842 C12.77330707 23.93241976 12.77651355 24.8716211 12.77981719 25.83928308 C12.78818109 29.01629353 12.78217064 32.19311858 12.77632141 35.37013245 C12.7793392 37.65898496 12.7832268 39.94783647 12.78791398 42.23668617 C12.79825114 48.54989423 12.79599766 54.86304587 12.79173338 61.17625868 C12.78855813 67.27843359 12.7966658 73.3805989 12.80349364 79.48276911 C12.81875928 93.5124963 12.82043595 107.54220549 12.81797061 121.57193924 C12.81613968 132.40702582 12.81789336 143.24210647 12.82219505 154.07719231 C12.82279745 155.63255306 12.82339865 157.18791382 12.82399866 158.74327458 C12.82490589 161.08695074 12.82581456 163.4306269 12.82673101 165.77430306 C12.83516492 187.5752745 12.83949335 209.37624369 12.83532429 231.17721653 C12.83516791 231.9996366 12.83501154 232.82205667 12.83485042 233.66939856 C12.83404461 237.83794787 12.83319884 242.00649716 12.83233712 246.17504645 C12.83216603 247.00296191 12.83199494 247.83087737 12.83181867 248.68388118 C12.83147202 250.3581306 12.83112349 252.03238002 12.83077308 253.70662944 C12.82541794 279.74787378 12.83333863 305.78908424 12.85180664 331.83032227 C12.87252284 361.07607025 12.88324984 390.32179725 12.87923115 419.56755298 C12.8788358 422.68623443 12.87847426 425.80491588 12.87813377 428.92359734 C12.87804304 429.69151527 12.87795231 430.45943321 12.87785883 431.25062138 C12.87669267 442.84516045 12.8833428 454.43967834 12.89394569 466.03421211 C12.90599471 479.22371664 12.90756034 492.41317452 12.89515553 505.60267974 C12.88910811 512.33393401 12.88819903 519.06509158 12.90015793 525.79634094 C12.91097784 531.95809457 12.90795964 538.11968041 12.89389624 544.28142606 C12.89123852 546.51097457 12.89364941 548.74053606 12.90163211 550.97007186 C12.91173234 554.00138151 12.90332071 557.03210727 12.89035511 560.06339359 C12.89766446 560.92828198 12.9049738 561.79317037 12.91250464 562.68426749 C12.80861898 574.40823777 8.55226836 584.92182275 0.22265625 593.265625 C-15.44459671 606.5167833 -33.84259785 607.09528009 -53.484375 605.96875 C-67.51171702 604.22084037 -80.30123908 596.9822042 -89.109375 585.9296875 C-95.69551609 576.08967909 -95.91124613 566.08352732 -95.84082031 554.58959961 C-95.84156103 552.90668479 -95.84361067 551.22377014 -95.84684372 549.54085827 C-95.85189165 544.8922055 -95.83802127 540.24376862 -95.82123566 535.59515047 C-95.80624259 530.49075577 -95.80916112 525.38636432 -95.80957031 520.2819519 C-95.8067767 507.69284263 -95.77601003 495.10385494 -95.74334908 482.51479387 C-95.72840843 476.50704881 -95.71641505 470.49929828 -95.70446777 464.49154663 C-95.70204346 463.28473761 -95.69961915 462.07792859 -95.69712138 460.83454961 C-95.69216979 458.36721431 -95.68723073 455.89987898 -95.68230391 453.43254364 C-95.66953459 447.04360601 -95.656614 440.65466872 -95.64349365 434.26573181 C-95.64083095 432.96360695 -95.63816824 431.66148209 -95.63542485 430.3198989 C-95.62133957 423.55767827 -95.60605278 416.79546338 -95.58850861 410.03325081 C-95.49007948 372.05913251 -95.49143801 334.0863969 -95.58728592 296.1122568 C-95.59903402 291.45437005 -95.61065031 286.79648299 -95.62213135 282.13859558 C-95.62442396 281.21014238 -95.62671657 280.28168918 -95.62907866 279.32510104 C-95.66338863 265.2338935 -95.68425021 251.14271356 -95.69378662 237.0514679 C-95.69442119 236.12326853 -95.69505576 235.19506916 -95.69570956 234.23874254 C-95.70187093 224.87252619 -95.7060792 215.50631043 -95.70795493 206.14009226 C-95.70895144 201.47043933 -95.71045778 196.8007867 -95.71228027 192.13113403 C-95.71263076 191.20848151 -95.71298124 190.28582898 -95.71334234 189.33521729 C-95.72019095 174.42259444 -95.76761853 159.51035503 -95.82953101 144.59787083 C-95.89145414 129.45740001 -95.9088491 114.31736971 -95.88287115 99.17679119 C-95.86862578 90.0664439 -95.88862291 80.95761506 -95.95620568 71.8475001 C-95.99845994 65.70429557 -95.99676133 59.56209302 -95.96019666 53.41885542 C-95.94055182 49.90531143 -95.93971409 46.39459703 -95.9922204 42.88132751 C-96.27555254 19.76900435 -96.27555254 19.76900435 -90.33109069 12.66778249 C-87.86856312 10.17917992 -85.26951449 8.09618537 -82.484375 5.96875 C-80.82324892 4.359386 -79.17436654 2.7371196 -77.546875 1.09375 C-54.89424013 -18.62310339 -24.00361218 -16.00240812 0 0 Z " fill="#000000be" transform="translate(1983.484375,132.03125)"/>
<path d="M0 0 C1.3152978 1.07590822 2.60604887 2.18230098 3.875 3.3125 C4.61621094 3.9725 5.35742188 4.6325 6.12109375 5.3125 C13.11326464 11.91556189 21.12408805 20.98683408 22.14674377 30.96354866 C22.16220497 32.40811597 22.16220497 32.40811597 22.17797852 33.88186646 C22.1946608 35.00346287 22.21134308 36.12505928 22.22853088 37.28064346 C22.23690475 38.51463757 22.24527863 39.74863167 22.25390625 41.02001953 C22.26990078 42.35826462 22.28672736 43.69649997 22.30430603 45.03472519 C22.35052572 48.75269237 22.38426669 52.47068682 22.41598511 56.18880224 C22.45278901 60.26267176 22.50072694 64.33641442 22.546875 68.41018677 C22.64941821 77.68050769 22.7359311 86.95094335 22.81964111 96.22145081 C22.87614498 102.47639011 22.93574315 108.73129813 22.99560547 114.98620605 C23.27832941 144.6485788 23.53371394 174.31116193 23.78125095 203.97384667 C23.85355904 212.63702929 23.92652715 221.3002061 24 229.96337891 C24.01028418 231.17815438 24.02056835 232.39292985 24.03116417 233.64451671 C24.08313791 239.77578931 24.13558965 245.90705727 24.18887329 252.03831863 C24.28384588 263.00912545 24.37624459 273.9799114 24.45269966 284.95086503 C24.49492693 290.99297631 24.53971444 297.03506648 24.5859375 303.07714844 C24.59503521 304.27039026 24.60413292 305.46363208 24.61350632 306.69303274 C24.75285248 324.27249846 25.03867601 341.84574902 25.39989471 359.42195392 C25.54986063 366.95755329 25.67614989 374.49359028 25.80164719 382.02963221 C25.92336876 389.16035498 26.08496387 396.2886944 26.27710915 403.41784763 C26.3856537 407.7976824 26.45610389 412.17753228 26.51615524 416.55827475 C26.55166776 418.57466048 26.60299962 420.59084316 26.67180252 422.60636759 C27.04441291 433.75479834 27.01434861 441.24691621 19.30148315 449.88960075 C18.50074371 450.68915751 17.70000427 451.48871426 16.875 452.3125 C16.01415802 453.25312349 15.15331604 454.19374699 14.26638794 455.16287422 C6.53081066 463.54860952 -2.39278332 468.65189896 -13.125 472.3125 C-14.08664063 472.67214844 -15.04828125 473.03179688 -16.0390625 473.40234375 C-21.95905476 475.05002043 -28.22213137 474.64044995 -34.3125 474.625 C-36.18905273 474.64916992 -36.18905273 474.64916992 -38.10351562 474.67382812 C-48.83890299 474.67941656 -58.39519305 472.78938105 -68.25 468.5625 C-69.32507812 468.11390625 -70.40015625 467.6653125 -71.5078125 467.203125 C-72.72328806 466.59192574 -73.92793043 465.95900584 -75.125 465.3125 C-75.94941505 464.88236261 -76.7738301 464.45222521 -77.62322742 464.00905335 C-84.55501027 459.87575338 -84.55501027 459.87575338 -86.04622972 455.78593612 C-86.39111843 452.67862469 -86.41535202 449.7066945 -86.33427429 446.58102417 C-86.34814901 444.81161978 -86.34814901 444.81161978 -86.36230403 443.00646985 C-86.37784406 439.73906053 -86.34861169 436.47561314 -86.30031526 433.20863771 C-86.25906896 429.67530562 -86.27584857 426.14218198 -86.28541565 422.60868835 C-86.29408596 416.46120097 -86.26586857 410.31475995 -86.21286583 404.16750717 C-86.1351224 395.14381917 -86.11336572 386.12063507 -86.10393129 377.09664835 C-86.08687223 362.2747707 -86.02449691 347.45343552 -85.93432617 332.63183594 C-85.84872776 318.54688622 -85.78387236 304.46212561 -85.74975586 290.37695312 C-85.74663135 289.09960083 -85.74663135 289.09960083 -85.74344371 287.79644343 C-85.7330502 283.5079106 -85.72303398 279.21937698 -85.71318221 274.93084288 C-85.6619392 252.80149877 -85.59503494 230.67239796 -85.45895386 208.543396 C-85.45384219 207.70932483 -85.44873053 206.87525366 -85.44346397 206.01590762 C-85.39724311 198.50253737 -85.34993277 190.98917419 -85.30145812 183.47581816 C-85.16272184 161.82156563 -85.11497599 140.16957077 -85.15967115 118.51493689 C-85.17793983 108.93474073 -85.16589748 99.35455988 -85.1498962 89.77436697 C-85.13979936 82.92222487 -85.14567517 76.0708475 -85.19238853 69.21883774 C-85.23406152 62.94477177 -85.2350926 56.67206192 -85.20406699 50.39794683 C-85.2004048 48.12998413 -85.21214234 45.86193348 -85.24081826 43.59414911 C-85.46974745 24.55140622 -85.46974745 24.55140622 -79.78056335 18.12081909 C-78.26821129 16.8045666 -76.71859364 15.52913005 -75.125 14.3125 C-73.927646 13.13493646 -72.73821597 11.94916824 -71.5625 10.75 C-52.91926253 -4.77379813 -21.63002626 -15.19604585 0 0 Z " fill="#000000be" transform="translate(2835.125,479.6875)"/>
<path d="M0 0 C0.94101563 0.30679687 1.88203125 0.61359375 2.8515625 0.9296875 C17.54698589 6.32421001 25.93381149 17.41583216 32.703125 30.97265625 C35.64549279 37.84113529 36.29115142 43.5983787 36.26069641 51.00111389 C36.26643473 52.48894958 36.26643473 52.48894958 36.27228898 54.00684255 C36.28258937 57.32370775 36.27863203 60.64039886 36.2746582 63.95727539 C36.27900712 66.33997253 36.28419087 68.72266827 36.29014587 71.10536194 C36.30215532 76.90911153 36.30468603 82.71280726 36.30234561 88.51656777 C36.30055668 93.2529219 36.30232447 97.98926208 36.30657005 102.72561455 C36.30716524 103.40198423 36.30776043 104.07835392 36.30837366 104.77521966 C36.30958561 106.15000714 36.31079975 107.52479461 36.31201603 108.89958208 C36.32289603 121.80072842 36.32073073 134.70184865 36.31463119 147.60299646 C36.30949836 159.31365905 36.32061954 171.02423752 36.33972941 182.73488349 C36.35929426 194.81964904 36.36732934 206.90437524 36.36360615 218.98915666 C36.36171725 225.74867747 36.36422465 232.50811696 36.37832069 239.26762581 C36.56876279 339.23370951 36.56876279 339.23370951 21.125 355.4375 C6.9886682 368.32023257 -10.14223564 369.66353479 -28.47998047 369.13623047 C-41.48187353 368.43335735 -53.62219812 363.01310958 -63 354 C-67.91462881 348.00677899 -72.25245329 342.07397202 -72.24723816 334.08692932 C-72.25143674 333.1171046 -72.25563532 332.14727987 -72.25996113 331.14806652 C-72.25433753 330.08930467 -72.24871393 329.03054281 -72.24291992 327.93969727 C-72.24478145 326.8074664 -72.24664297 325.67523554 -72.24856091 324.50869465 C-72.25221325 320.69453318 -72.24134292 316.88055203 -72.23046875 313.06640625 C-72.22873905 310.31983357 -72.22993258 307.57326356 -72.23086548 304.82669067 C-72.23111669 297.31269949 -72.21611653 289.79878355 -72.198246 282.28481674 C-72.18713065 277.5702215 -72.17933791 272.85562447 -72.17221069 268.14102173 C-72.14481766 250.46164308 -72.10190582 232.78234825 -72.04974067 215.10302651 C-72.00891201 201.10807455 -71.98680228 187.11316739 -71.97363281 173.11816406 C-71.95724453 155.89069842 -71.92162111 138.66338355 -71.86309147 121.4360075 C-71.83189867 112.14132451 -71.80849548 102.84677113 -71.80526733 93.55203247 C-71.80236059 85.59652365 -71.78209929 77.64128891 -71.73977637 69.68588829 C-71.71857049 65.60576911 -71.70537706 61.52604039 -71.71379471 57.44586563 C-71.72131981 53.69079796 -71.70559452 49.93654765 -71.67192805 46.18163002 C-71.65990526 44.1842309 -71.67222774 42.18673041 -71.68556499 40.18933964 C-71.55462112 29.88122709 -68.67188823 22.19490938 -61.65234375 14.5859375 C-46.25293426 -0.19458319 -20.57269521 -7.05561749 0 0 Z " fill="#000000be" transform="translate(2391,293)"/>
<path d="M0 0 C55.77 0 111.54 0 169 0 C169 13.53 169 27.06 169 41 C124.45 41.495 124.45 41.495 79 42 C90.385 47.445 90.385 47.445 102 53 C106.95961619 55.37240543 111.91841148 57.74630622 116.875 60.125 C118.050625 60.68703125 119.22625 61.2490625 120.4375 61.828125 C121.54867188 62.36179687 122.65984375 62.89546875 123.8046875 63.4453125 C124.78421387 63.91469238 125.76374023 64.38407227 126.77294922 64.86767578 C129 66 129 66 130 67 C130 74.59 130 82.18 130 90 C115.15 97.26 100.3 104.52 85 112 C113.71 112.33 142.42 112.66 172 113 C172 127.00396769 171.5382162 141.00637879 171 155 C114.57 155 58.14 155 0 155 C0 150.05 0 145.1 0 140 C-0.07863281 138.09347656 -0.15726563 136.18695312 -0.23828125 134.22265625 C-0.60599489 121.03201262 -0.60599489 121.03201262 3.046875 116.41015625 C5.82300451 114.6957087 8.61980488 113.35843178 11.62304688 112.09130859 C16.68171414 109.76876929 21.39700496 106.76099682 26.1875 103.9375 C28.44747315 102.6336883 30.70922978 101.3329637 32.97265625 100.03515625 C34.135628 99.36743486 35.2985508 98.69962819 36.46142578 98.03173828 C37.04305481 97.69781067 37.62468384 97.36388306 38.22393799 97.01983643 C42.38669534 94.62953048 46.54829634 92.23721968 50.70825195 89.84204102 C52.92862362 88.5637606 55.14977246 87.28682885 57.37182617 86.01147461 C62.98661974 82.77925529 68.53189698 79.47493358 74 76 C70.25745339 72.89773114 66.05894333 70.86349658 61.74609375 68.68359375 C60.93116959 68.26763443 60.11624542 67.85167511 59.27662659 67.42311096 C56.6653869 66.09100059 54.05159611 64.76399494 51.4375 63.4375 C41.2614616 58.26072782 31.08855996 53.07874787 20.97265625 47.78515625 C20.24606308 47.40725449 19.51946991 47.02935272 18.77085876 46.63999939 C12.38094916 43.28175426 6.25665994 39.6497183 0 36 C0 24.12 0 12.24 0 0 Z " fill="#FFFFFF" transform="translate(1923,1346)"/>
<path d="M0 0 C0.79728516 0.00418945 1.59457031 0.00837891 2.41601562 0.01269531 C8.77289088 0.1338523 14.32645723 1.12271758 20.3125 3.3125 C21.58480469 3.67794922 21.58480469 3.67794922 22.8828125 4.05078125 C35.61274195 8.157838 42.40857096 20.9453345 48.29052734 32.18066406 C57.68249511 50.75683358 61.00668269 73.05984897 54.64770508 93.16430664 C50.58778507 104.82782388 44.48256658 115.04780313 36.3125 124.3125 C35.61769531 125.1271875 34.92289063 125.941875 34.20703125 126.78125 C32.28019177 129.0081414 30.36799835 131.20366536 28.3125 133.3125 C27.6215625 134.05242187 26.930625 134.79234375 26.21875 135.5546875 C21.88851121 138.17378354 17.95310104 137.74452209 13 137.5625 C12.06865234 137.54445313 11.13730469 137.52640625 10.17773438 137.5078125 C7.88825803 137.46084888 5.60091816 137.39519475 3.3125 137.3125 C3.13571605 123.95549051 3.68424743 110.65284171 4.3125 97.3125 C5.004646 97.13581787 5.69679199 96.95913574 6.40991211 96.77709961 C7.76741577 96.40597046 7.76741577 96.40597046 9.15234375 96.02734375 C10.49993774 95.66950806 10.49993774 95.66950806 11.87475586 95.30444336 C14.60624232 94.19297321 15.43117805 93.40059589 16.875 90.875 C19.49610598 84.37921561 19.56190001 78.6453252 19.625 71.6875 C19.65400391 70.64464844 19.68300781 69.60179687 19.71289062 68.52734375 C19.7795197 60.31659102 18.53288967 53.06962128 13.0625 46.6875 C9.34367761 44.8280888 6.38852749 44.52546217 2.3125 45.3125 C-2.03680865 47.58600225 -3.97580557 50.84493264 -5.79296875 55.25390625 C-7.188739 60.02634339 -7.78042158 64.8907279 -8.47973633 69.80566406 C-11.4117809 89.66578997 -18.42079646 110.57246681 -33.6875 124.3125 C-34.29335937 124.88742187 -34.89921875 125.46234375 -35.5234375 126.0546875 C-36.19632813 126.67601562 -36.86921875 127.29734375 -37.5625 127.9375 C-38.17867187 128.50726562 -38.79484375 129.07703125 -39.4296875 129.6640625 C-46.83405836 135.07002185 -54.00162191 134.89232367 -62.9375 134.9375 C-64.19691406 134.98261719 -65.45632813 135.02773437 -66.75390625 135.07421875 C-75.98195553 135.14129699 -81.504647 133.0445801 -88.6875 127.3125 C-89.43878174 126.72670166 -90.19006348 126.14090332 -90.96411133 125.53735352 C-100.61095046 117.77625143 -106.97375297 107.62780921 -111.6875 96.3125 C-111.94724609 95.69052734 -112.20699219 95.06855469 -112.47460938 94.42773438 C-118.29959661 79.7679336 -119.60512209 61.58739838 -114.6875 46.5 C-106.47030252 27.66507545 -91.95864744 15.66200874 -74.296875 6.08984375 C-71.6875 5.3125 -71.6875 5.3125 -62.6875 5.3125 C-62.6875 19.5025 -62.6875 33.6925 -62.6875 48.3125 C-65.9875 49.9625 -69.2875 51.6125 -72.6875 53.3125 C-79.09828905 60.63911605 -81.2181561 66.24221665 -81.07421875 76.0078125 C-80.40403304 81.73485399 -78.05396239 86.17002376 -73.7890625 90.03125 C-70.21928684 92.2076188 -66.73520039 91.82727723 -62.6875 91.3125 C-57.95742056 89.58420174 -54.94760243 87.12570301 -51.6875 83.3125 C-50.79962856 80.17148383 -50.79962856 80.17148383 -50.625 76.6875 C-50.48924278 75.34831851 -50.34699439 74.00978361 -50.19921875 72.671875 C-50.08392822 71.61129883 -50.08392822 71.61129883 -49.96630859 70.52929688 C-47.1653189 48.25873084 -39.7992235 22.83591992 -22.6875 7.3125 C-15.63236551 1.86959917 -8.82663484 -0.06320674 0 0 Z " fill="#FFFFFF" transform="translate(2035.6875,1026.6875)"/>
<path d="M0 0 C5.9596998 -0.12789533 11.91954949 -0.21383357 17.88020897 -0.28520393 C20.36805386 -0.32205431 22.85573234 -0.37312198 25.34297752 -0.43901253 C49.56729598 -1.06497026 49.56729598 -1.06497026 59.38820457 8.221632 C61.27603775 9.66962239 63.17111338 11.1082559 65.07570457 12.534132 C80.08681856 25.12618877 91.81931065 43.86151736 93.60915184 63.66645622 C94.48386438 82.68727539 91.42356974 100.68304588 78.38820457 115.409132 C70.58337202 123.78485095 59.29216622 132.34490586 47.65080833 133.49116898 C44.40124221 133.58971891 41.1645331 133.59271376 37.9135952 133.56220818 C36.6834771 133.56264626 35.45335899 133.56308434 34.18596458 133.56353569 C30.8350843 133.56181168 27.484768 133.54683342 24.13398743 133.52581382 C20.62397635 133.50697804 17.11395664 133.50529117 13.60390282 133.50173759 C6.96714531 133.49243729 0.33053719 133.46785105 -6.30615473 133.43768913 C-13.86603017 133.40408211 -21.42591299 133.38764332 -28.98584461 133.37260282 C-44.52791454 133.34129949 -60.06983567 133.28857855 -75.61179543 133.221632 C-75.64124581 128.80497975 -75.65874359 124.38835334 -75.67429543 119.971632 C-75.68267433 118.73671013 -75.69105324 117.50178825 -75.69968605 116.2294445 C-75.72001428 108.50471696 -75.40184858 100.90661354 -74.61179543 93.221632 C-74.03864161 93.22108724 -73.46548779 93.22054247 -72.87496567 93.21998119 C-58.89308369 93.20497769 -44.91150966 93.16238735 -30.92980576 93.08954144 C-24.16816709 93.05496969 -17.40673063 93.02954625 -10.64499855 93.02607536 C-4.11552165 93.02269749 2.41354149 92.99327487 8.94286537 92.94820023 C11.42980169 92.93524373 13.91679885 92.93091094 16.40376472 92.93547821 C19.89636421 92.94039695 23.38748627 92.91423181 26.87990379 92.88105583 C27.90058449 92.88968147 28.92126518 92.89830711 29.9728756 92.90719414 C38.46273428 92.77263498 45.02645587 90.29727444 51.32570457 84.534132 C55.71861497 77.47885167 57.60562535 69.50009329 56.38820457 61.221632 C54.39942552 55.02006292 51.1580447 51.43542022 45.54200172 48.13747406 C43.01849057 47.06442145 41.16568105 46.96063717 38.42745018 46.9431591 C37.42908134 46.93199562 36.43071251 46.92083214 35.40209007 46.90933037 C34.31308403 46.90717018 33.22407799 46.90500999 32.10207176 46.90278435 C30.95056633 46.89273872 29.7990609 46.8826931 28.61266136 46.87234306 C24.80347255 46.8414324 20.99435427 46.82445378 17.18507957 46.8075695 C14.54520113 46.78886423 11.90532871 46.7692913 9.26546288 46.7488842 C3.02533691 46.70211053 -3.21480621 46.66535964 -9.45501781 46.63221133 C-16.56023113 46.59397993 -23.665353 46.54457246 -30.77048922 46.49422717 C-45.38419251 46.39092833 -59.99795386 46.30313661 -74.61179543 46.221632 C-74.61179543 31.371632 -74.61179543 16.521632 -74.61179543 1.221632 C-57.78559654 0.9139027 -40.95994095 0.6368454 -24.13242531 0.4159832 C-16.08740626 0.30875547 -8.04382995 0.17529866 0 0 Z " fill="#FFFFFF" transform="translate(1999.611795425415,1183.7783679962158)"/>
<path d="M0 0 C26.29941938 -1.37780493 26.29941938 -1.37780493 33.7265625 4.75390625 C34.47679688 5.49511719 35.22703125 6.23632812 36 7 C36.93585937 7.83402344 37.87171875 8.66804687 38.8359375 9.52734375 C54.41565122 24.08372507 62.33343669 43.03534213 63.2734375 64.09375 C63.7880616 83.60463805 59.78126832 100.8416989 46.9375 116.1875 C36.57957444 127.00265148 22.30173969 137.26468706 6.9375 137.76049805 C3.95691439 137.81467963 0.98073182 137.79448873 -2 137.76171875 C-3.60937789 137.76322615 -5.21875499 137.76666833 -6.828125 137.77192688 C-10.18006447 137.77622815 -13.53103179 137.75965264 -16.8828125 137.72729492 C-21.14267731 137.68751638 -25.40072186 137.69683782 -29.66064453 137.72152996 C-32.97768633 137.73582794 -36.29431522 137.72553638 -39.61132812 137.70801735 C-41.18032847 137.70223798 -42.74937238 137.70336361 -44.31835938 137.71204185 C-60.77992592 137.77280179 -73.40590516 133.12424185 -85.47265625 121.6484375 C-100.50527334 105.83783856 -105.37601452 85.96766757 -105.26074219 64.78637695 C-105.2500055 62.43870311 -105.26069584 60.09179153 -105.2734375 57.74414062 C-105.29123856 40.4171666 -101.09363267 24.12402433 -89.125 10.93359375 C-81.14921353 3.48845436 -73.42537794 0.41242268 -62.5234375 0.56054688 C-61.31945313 0.60244141 -60.11546875 0.64433594 -58.875 0.6875 C-57.01101563 0.72133789 -57.01101563 0.72133789 -55.109375 0.75585938 C-52.07162615 0.81427762 -49.03647721 0.89614238 -46 1 C-44.84020004 8.64103501 -44.66802794 16.28298282 -44.4375 24 C-44.39421865 25.36068789 -44.35060161 26.72136515 -44.30664062 28.08203125 C-44.20113317 31.38793157 -44.09901744 34.69389999 -44 38 C-44.65516602 38.25031982 -45.31033203 38.50063965 -45.98535156 38.75854492 C-56.83359361 42.98473116 -66.28571839 48.07143548 -72.375 58.3125 C-74.12249503 65.82672864 -73.36969097 71.77125446 -69.63671875 78.53125 C-66.63649109 83.05665306 -62.95357551 88.52321225 -58 91 C-55.14280094 91.09996802 -52.31056901 91.13946317 -49.453125 91.1328125 C-48.14658966 91.13533524 -48.14658966 91.13533524 -46.81365967 91.13790894 C-39.03736333 91.14556429 -31.26082362 91.10461507 -23.48474121 91.0491333 C-18.31803706 91.01235922 -13.15366483 91.00336495 -7.98699951 91.04367065 C-4.65765186 91.06091003 -1.3292753 91.02703588 2 91 C3.75521973 91.02924561 3.75521973 91.02924561 5.54589844 91.05908203 C14.31881948 90.90338777 19.59221262 87.92191906 26 82 C29.88645603 77.56090556 31.38206244 73.11060901 31.2734375 67.1796875 C30.36744869 59.95766242 25.54891653 54.34606596 20 50 C15.3412423 46.83923115 10.53203278 43.91748443 5.69824219 41.03393555 C4.10591084 40.06448137 2.55113469 39.03408979 1 38 C0.48828125 35.078125 0.48828125 35.078125 0.3125 31.25 C0.27906494 30.56421875 0.24562988 29.8784375 0.21118164 29.171875 C-0.2003714 19.45708534 -0.08736797 9.7206953 0 0 Z " fill="#FFFFFF" transform="translate(2029,804)"/>
<path d="M0 0 C11.39585521 -0.02803025 22.79162727 -0.05131178 34.1875 -0.0625 C35.05304127 -0.06335602 35.91858253 -0.06421204 36.81035233 -0.06509399 C66.6891053 -0.0910956 96.56120539 0.12327971 126.4375 0.5 C127.86068354 0.51793673 127.86068354 0.51793673 129.31261826 0.53623581 C140.8752006 0.68269635 152.43758753 0.84008518 164 1 C164 14.53 164 28.06 164 42 C109.88 42 55.76 42 0 42 C0 28.14 0 14.28 0 0 Z " fill="#FFFFFF" transform="translate(1927,965)"/>
<path d="M0 0 C0 0.66 0 1.32 0 2 C-3.4766338 4.14336161 -6.21229195 4.21277626 -10.25 4.125 C-11.32765625 4.10695313 -12.4053125 4.08890625 -13.515625 4.0703125 C-14.33546875 4.04710937 -15.1553125 4.02390625 -16 4 C-16 3.67 -16 3.34 -16 3 C-13.70887834 2.49750857 -11.41708499 1.99807883 -9.125 1.5 C-7.84882813 1.2215625 -6.57265625 0.943125 -5.2578125 0.65625 C-2 0 -2 0 0 0 Z " fill="none" transform="translate(2441,702)"/>
</svg>
